<svg xmlns="http://www.w3.org/2000/svg" width="512" height="512" viewBox="0 0 512 512" version="1.1">
	<path d="M 231.056 9.113 C 170.108 14.523, 105.327 49.218, 64.811 98.148 C 34.969 134.188, 15.205 179.343, 8.852 226 C 8.112 231.433, 7.578 244.703, 7.603 257 C 7.654 281.321, 9.195 292.814, 15.986 319.500 C 31.814 381.703, 75.481 440.132, 130.742 473.050 C 154.825 487.396, 187.021 498.540, 219.203 503.667 C 235.344 506.239, 274.689 506.219, 291.500 503.630 C 344.483 495.471, 391.530 472.951, 426.371 439.071 C 492.160 375.097, 518.098 289.995, 498.456 202.558 C 490.957 169.174, 474.641 134.287, 453.171 105.730 C 427.537 71.634, 387.264 41.320, 345.494 24.682 C 311.796 11.259, 270.374 5.623, 231.056 9.113 M 237.500 12.060 C 209.479 14.418, 180.191 22.686, 155.500 35.207 C 140.164 42.984, 123.117 53.636, 118.411 58.384 C 116.711 60.098, 114.320 62.175, 113.096 63 C 103.012 69.797, 98.992 73.400, 99.547 75.147 C 99.870 76.166, 99.654 77, 99.067 77 C 98.480 77, 98 76.516, 98 75.925 C 98 75.334, 93.725 79.181, 88.500 84.474 C 83.143 89.902, 79 94.936, 79 96.018 C 79 97.331, 78.516 97.752, 77.469 97.350 C 76.005 96.788, 70.527 101.860, 71.523 102.856 C 71.766 103.099, 70.921 104.243, 69.646 105.399 C 64.975 109.633, 55.669 124.389, 47.984 139.747 C 38.169 159.362, 27.744 187.347, 28.798 191.250 C 28.909 191.663, 28.520 192, 27.933 192 C 27.299 192, 27.140 192.864, 27.540 194.125 C 27.974 195.494, 27.841 196.020, 27.166 195.603 C 26.478 195.177, 26.307 196.114, 26.667 198.338 C 27.103 201.021, 26.729 202.193, 24.858 204.007 C 23.561 205.265, 23.063 205.976, 23.750 205.588 C 24.517 205.155, 25 205.484, 25 206.441 C 25 207.298, 24.601 208, 24.114 208 C 23.626 208, 22.922 210.137, 22.549 212.750 C 22.176 215.363, 21.644 218.850, 21.367 220.500 C 21.089 222.150, 20.642 224.850, 20.373 226.500 C 19.473 232.011, 19.237 266.888, 20.070 271.344 C 20.522 273.762, 21.149 278.370, 21.464 281.583 C 21.780 284.796, 22.509 289.177, 23.085 291.318 C 23.662 293.458, 23.904 295.808, 23.623 296.540 C 23.342 297.272, 23.608 298.036, 24.214 298.238 C 24.820 298.440, 25.274 300.052, 25.224 301.821 C 25.172 303.671, 25.546 304.781, 26.106 304.434 C 26.701 304.067, 26.839 304.935, 26.459 306.666 C 26.025 308.649, 26.130 309.085, 26.810 308.117 C 27.556 307.057, 27.900 307.407, 28.285 309.617 C 28.561 311.203, 28.802 313.441, 28.820 314.591 C 28.855 316.917, 35.830 335.893, 41.466 349 C 50.288 369.516, 64.489 391.996, 81.360 412.151 C 111.865 448.597, 149.104 471.393, 198.500 483.859 C 236.930 493.558, 282.093 492.699, 320.892 481.531 C 369.906 467.423, 406.226 444.137, 437.139 407 C 465.639 372.762, 486.267 326.581, 491.411 285.500 C 493.106 271.963, 494.316 246.988, 493.394 244.584 C 492.465 242.164, 491.046 242.699, 491.626 245.250 C 492.361 248.484, 492.098 259.531, 490.930 274.500 C 487.696 315.926, 470.383 360.235, 444.297 393.850 C 429.393 413.055, 404.178 436.448, 385 448.860 C 359.674 465.251, 324.004 477.879, 289.500 482.670 C 272.423 485.042, 238.310 485.033, 223.036 482.654 C 190.712 477.619, 160.499 466.456, 132.773 449.306 C 100.470 429.324, 71.318 398.054, 53.096 363.842 C 47.118 352.618, 38.159 332.154, 34.996 322.500 C 33.735 318.650, 32.432 315.275, 32.102 315 C 31.771 314.725, 31.417 313.600, 31.316 312.500 C 31.215 311.400, 29.987 306.228, 28.587 301.006 C 23.792 283.120, 22.510 272.894, 22.505 252.500 C 22.500 234.882, 23.263 221.028, 24.336 219.247 C 24.583 218.836, 25.074 216.344, 25.426 213.710 C 26.284 207.297, 33.358 181.579, 37.174 171 C 40.410 162.028, 52.636 136.911, 56.636 131.018 C 59.115 127.367, 59.692 125.454, 58 126.500 C 57.450 126.840, 57 126.611, 57 125.992 C 57 125.372, 57.788 125.112, 58.750 125.414 C 60.055 125.823, 61.442 124.505, 64.203 120.232 C 69.946 111.343, 87.661 91.356, 97.485 82.681 C 117.543 64.969, 135.829 52.863, 158.500 42.288 C 189.991 27.599, 212.498 22.258, 247 21.289 C 287.622 20.148, 317.616 26.134, 353.252 42.495 C 386.293 57.664, 414.788 78.683, 435.324 103.036 C 444.448 113.856, 458.275 133.875, 464.093 144.689 C 467.302 150.653, 469.624 152.465, 472.596 151.325 C 474.712 150.513, 474.317 148.375, 470.850 141.870 C 468.346 137.172, 467.321 136.081, 465.850 136.548 C 463.818 137.193, 463.277 135.123, 465.021 133.379 C 466.089 132.311, 460.845 124, 459.102 124 C 458.615 124, 457.930 122.859, 457.580 121.464 C 456.676 117.859, 438.127 92.194, 435.660 91.135 C 435.193 90.934, 433.616 89.359, 432.155 87.635 C 418.342 71.326, 388.438 48.867, 364.207 36.602 C 349.948 29.385, 324.709 20.659, 306.369 16.606 C 287.066 12.340, 257.420 10.383, 237.500 12.060 M 238.500 40.083 C 236.300 40.515, 233.750 40.654, 232.834 40.393 C 231.918 40.132, 230.916 40.326, 230.608 40.824 C 230.301 41.323, 228.913 41.606, 227.524 41.453 C 226.136 41.301, 225 41.617, 225 42.155 C 225 42.694, 224.213 42.885, 223.250 42.580 C 222.287 42.275, 220.282 42.658, 218.794 43.431 C 217.306 44.204, 215.175 44.597, 214.059 44.305 C 212.943 44.013, 211.236 44.131, 210.265 44.566 C 209.294 45.001, 207.375 45.420, 206 45.496 C 204.625 45.572, 202.433 46.211, 201.129 46.917 C 199.825 47.622, 199.040 47.745, 199.383 47.189 C 200.238 45.806, 185.082 50.399, 179.709 53.151 C 178.724 53.655, 177.487 53.801, 176.959 53.475 C 176.432 53.149, 176 53.316, 176 53.847 C 176 54.378, 173.637 55.130, 170.750 55.518 C 167.863 55.906, 164.952 56.521, 164.281 56.884 C 163.414 57.354, 164.633 60.801, 168.515 68.850 C 171.514 75.068, 173.446 79.982, 172.809 79.770 C 172.172 79.557, 169.304 75.151, 166.436 69.979 C 161.755 61.535, 159 58.126, 159 60.777 C 159 61.605, 168.748 83.049, 169.457 83.781 C 170.210 84.559, 175.988 80.288, 175.994 78.950 C 176.003 76.623, 178.079 75, 181.045 75 C 184.158 75, 187.301 78.051, 186.457 80.252 C 185.783 82.009, 171.857 89, 169.032 89 C 167.640 89, 165.474 85.596, 160.455 75.520 L 153.740 62.040 150.823 63.764 C 147.099 65.964, 147.534 68.110, 153.555 77.238 C 156 80.944, 158 84.291, 158 84.675 C 158 86.213, 151.719 79.225, 148.221 73.794 C 144.734 68.381, 143 66.764, 143 68.926 C 143 69.435, 144.800 73.573, 147 78.123 C 149.200 82.672, 151 87.206, 151 88.197 C 151 90.391, 152.320 90.524, 154 88.500 C 155.917 86.190, 159.740 86.673, 161.563 89.456 C 163.593 92.555, 162.726 94, 158.835 94 C 157.045 94, 154.564 95.031, 152.818 96.500 C 148.294 100.306, 147.450 99.898, 146.418 93.408 C 146.084 91.304, 143.840 85.658, 141.431 80.863 L 137.052 72.143 130.760 76.321 C 127.300 78.620, 121.551 82.371, 117.984 84.657 C 106.991 91.704, 91.062 106.213, 81.378 118 C 79.796 119.925, 77.674 122.400, 76.661 123.500 C 72.171 128.376, 58.352 150.324, 52.806 161.384 C 39.771 187.382, 33.092 210.187, 29.926 239.500 C 27.798 259.211, 30.197 292.162, 35.022 309.500 C 37.002 316.612, 37.062 314.945, 35.185 305 C 33.077 293.826, 32.735 289.402, 34.081 290.713 C 35.063 291.670, 35.617 291.365, 36.704 289.269 C 37.710 287.330, 37.899 284.743, 37.402 279.701 C 36.885 274.458, 37.041 272.593, 38.046 271.971 C 39.136 271.298, 39.116 270.838, 37.936 269.384 C 37.035 268.275, 36.966 267.896, 37.752 268.368 C 38.696 268.935, 38.883 268.185, 38.516 265.315 C 38.248 263.222, 37.572 261.357, 37.014 261.171 C 35.705 260.735, 35.729 254.066, 37.089 240.424 C 38.217 229.118, 39.528 226, 43.155 226 C 45.585 226, 49.100 229.576, 48.418 231.354 C 47.698 233.231, 53.774 232.136, 61.514 228.994 C 67.978 226.371, 69.508 227.141, 68.484 232.500 C 66.955 240.496, 65.988 251.932, 66.520 255.717 C 67.181 260.418, 67.434 260.251, 57.750 261.507 C 55.107 261.849, 52.993 262.650, 52.985 263.311 C 52.974 264.130, 52.709 264.090, 52.134 263.183 C 51.527 262.225, 50.951 262.704, 50.028 264.933 C 48.990 267.439, 48.999 268.322, 50.080 269.751 C 51.206 271.239, 51.194 271.313, 50.002 270.250 C 47.956 268.425, 45.939 268.678, 46.701 270.664 C 47.165 271.872, 46.977 272.104, 46.015 271.510 C 45.087 270.936, 44.928 271.074, 45.484 271.974 C 46.673 273.898, 57.810 272.497, 61.210 269.995 C 62.700 268.898, 64.500 268, 65.210 268.001 C 66.296 268.001, 67.988 274.412, 70.334 287.420 C 70.425 287.926, 65.325 290.035, 59 292.108 C 52.675 294.180, 47.788 295.903, 48.140 295.937 C 48.665 295.989, 64.098 292.933, 68.991 291.809 C 70.554 291.450, 72.964 295.545, 72.985 298.597 C 72.994 299.812, 72.061 301.113, 70.771 301.689 L 68.541 302.684 71.021 303.967 C 78.275 307.721, 80.832 314.031, 77.127 319.042 C 74.541 322.540, 74.501 323, 76.777 323 C 77.755 323, 79.498 323.661, 80.651 324.468 C 82.706 325.907, 82.738 325.843, 82.262 321.218 L 81.776 316.500 84.429 320 C 85.888 321.925, 87.476 323.500, 87.958 323.500 C 88.439 323.500, 90.108 324.702, 91.667 326.170 C 93.225 327.639, 96.093 330.339, 98.040 332.170 C 99.987 334.002, 102.219 336.772, 103 338.327 C 103.782 339.883, 105.280 341.615, 106.331 342.177 C 107.693 342.906, 108.046 342.884, 107.562 342.100 C 106.134 339.789, 108.364 341.145, 111.365 344.413 C 113.089 346.290, 116.206 349.665, 118.290 351.913 C 120.375 354.161, 121.702 356, 121.240 356 C 120.778 356, 119.860 355.460, 119.200 354.800 C 118.464 354.064, 118 354.004, 118 354.645 C 118 356.090, 121.089 358.693, 123.500 359.281 C 124.952 359.634, 125.046 359.800, 123.844 359.884 C 121.381 360.056, 122.718 364, 125.239 364 C 126.790 364, 126.996 364.300, 126.146 365.324 C 125.370 366.259, 125.360 366.960, 126.111 367.711 C 126.862 368.462, 126.855 368.972, 126.087 369.446 C 124.840 370.217, 124.605 373, 125.788 373 C 126.723 373, 141.555 361.229, 146.523 356.543 C 149.038 354.171, 150 352.407, 150 350.167 C 150 345.619, 154.814 340.732, 162.621 337.354 L 169.216 334.500 174.616 323.750 C 177.587 317.837, 179.675 313, 179.258 313 C 178.841 313, 175.349 313.667, 171.500 314.483 C 157.443 317.460, 142.907 315.525, 129.410 308.881 C 123.268 305.858, 115 298.371, 115 295.834 C 115 292.548, 119.912 287.743, 126.839 284.253 C 131.610 281.850, 134.672 279.601, 135.589 277.828 C 137.553 274.031, 137.321 265.857, 135 257 C 133.919 252.875, 133.036 248.375, 133.039 247 C 133.047 243.075, 136.179 237.244, 143.516 227.500 C 152.035 216.185, 154.228 211.317, 154.629 202.833 C 154.803 199.166, 155.010 195.791, 155.091 195.333 C 155.789 191.353, 154.461 187.445, 150.389 181.498 C 143.218 171.026, 143.480 166.799, 151.999 155.480 C 154.627 151.988, 155.279 149.752, 156.960 138.480 C 160.560 114.336, 164.051 106.738, 177.879 92.962 C 187.369 83.508, 195.630 76.791, 201.506 73.754 C 203.160 72.900, 209.460 70.770, 215.506 69.021 C 228.832 65.166, 233.480 62.593, 238.980 56.024 C 241.293 53.261, 243.792 51, 244.532 51 C 245.273 51, 247.955 52.797, 250.492 54.993 C 253.030 57.189, 255.996 59.463, 257.085 60.045 C 258.173 60.628, 265.687 61.484, 273.782 61.948 C 287.827 62.753, 289.094 63.007, 301.500 67.514 C 324.523 75.877, 334.304 81.493, 347.038 93.659 C 356.807 102.992, 360.130 108.977, 360.774 118.400 C 361.193 124.543, 361.946 126.780, 366.358 135 C 370.859 143.385, 371.460 145.208, 371.479 150.529 C 371.498 155.918, 371.102 157.113, 367.750 161.781 C 365.688 164.654, 363.988 167.791, 363.974 168.752 C 363.960 169.714, 364.948 174.383, 366.171 179.130 L 368.395 187.759 363.237 197.917 C 357.208 209.788, 356.915 207.630, 367.060 226.040 C 371.454 234.014, 374 239.774, 374 241.741 C 374 245.793, 370.144 250.325, 364.916 252.417 L 360.825 254.054 361.530 262.523 C 362.110 269.482, 361.947 271.431, 360.618 273.460 C 359.728 274.818, 359 277.535, 359 279.497 C 359 281.459, 358.325 284.680, 357.500 286.654 C 355.429 291.610, 355.591 293.256, 358.740 299.268 C 360.798 303.199, 361.559 306.241, 361.798 311.500 C 362.473 326.360, 357.414 329.450, 325.750 333.513 L 321 334.123 321.014 338.811 C 321.036 346.574, 321.562 347.364, 328.794 350.515 C 332.458 352.111, 338.705 355.590, 342.676 358.246 C 348.869 362.388, 360.616 367.593, 379 374.339 C 381.475 375.248, 390.236 379.712, 398.469 384.259 C 408.990 390.070, 414.084 393.485, 415.610 395.749 C 417.341 398.317, 418.003 398.701, 418.881 397.643 C 419.487 396.913, 419.687 396.020, 419.325 395.658 C 418.963 395.296, 419.192 395, 419.833 395 C 420.475 395, 421 395.477, 421 396.059 C 421 396.641, 421.472 396.826, 422.049 396.470 C 422.755 396.034, 422.680 395.319, 421.818 394.281 C 420.698 392.931, 420.926 392.825, 423.661 393.426 C 426.451 394.038, 426.924 393.794, 428.104 391.128 C 428.830 389.487, 429.891 388.403, 430.462 388.719 C 431.033 389.035, 430.954 388.704, 430.286 387.983 C 429.322 386.942, 429.528 386.267, 431.286 384.701 L 433.500 382.731 430.917 383.195 C 429.324 383.481, 428.333 383.202, 428.333 382.467 C 428.333 381.811, 429.108 381.477, 430.054 381.724 C 431 381.972, 432.064 381.706, 432.417 381.134 C 433.262 379.768, 424.122 372.595, 416.875 368.937 C 413.724 367.346, 410.867 365.594, 410.527 365.044 C 409.734 363.761, 413.956 358, 415.688 358 C 416.410 358, 417 358.409, 417 358.908 C 417 359.408, 420.038 361.473, 423.750 363.498 C 427.462 365.522, 431.962 368.577, 433.750 370.286 C 436.402 372.820, 437 373.060, 437 371.588 C 437 370.131, 437.515 369.912, 439.675 370.454 C 445.151 371.829, 440.163 368.453, 428.607 362.964 C 422.280 359.959, 417.080 357.146, 417.051 356.714 C 417.013 356.119, 425.348 344.570, 427.597 342.105 C 427.795 341.888, 430.882 344.870, 434.458 348.732 C 438.034 352.594, 443.219 357.477, 445.980 359.582 C 448.741 361.688, 451 364.181, 451 365.122 C 451 366.062, 449.198 368.765, 446.996 371.126 C 443.488 374.888, 443.173 375.601, 444.450 376.878 C 445.727 378.155, 446.153 378.036, 447.892 375.918 C 449.882 373.494, 461.323 351.912, 463.111 347.208 C 463.880 345.186, 463.810 344.913, 462.753 345.790 C 461.771 346.605, 459.689 345.973, 454.471 343.277 C 450.637 341.296, 444.592 338.685, 441.037 337.474 C 433.155 334.790, 431.836 333.123, 434.250 328.900 C 435.212 327.216, 436 324.987, 436 323.946 C 436 321.749, 440.801 311.241, 442.200 310.376 C 442.721 310.054, 444.158 310.739, 445.392 311.899 C 446.626 313.058, 451.363 315.367, 455.918 317.029 C 469.498 321.986, 471.352 323.327, 469.232 326.659 C 468.473 327.852, 462.051 330.596, 458.500 331.246 C 456.988 331.522, 457.805 332.285, 461.849 334.373 C 464.792 335.892, 467.332 336.992, 467.495 336.817 C 468.587 335.647, 474.508 316.749, 477.022 306.410 C 481.693 287.199, 482.295 280.347, 481.705 253.095 C 481.249 232.054, 480.810 226.766, 478.664 216.500 C 474.279 195.524, 472.184 187.727, 468.484 178.612 C 463.159 165.491, 452.683 145.218, 452.249 147.191 C 452.038 148.148, 449.842 149.603, 447.188 150.542 C 444.610 151.456, 438.831 153.957, 434.348 156.102 C 429.864 158.246, 425.692 160, 425.076 160 C 424.461 160, 423.404 158.762, 422.729 157.250 C 422.053 155.738, 420.353 153.523, 418.950 152.330 C 417.548 151.136, 415.552 148.583, 414.514 146.656 C 412.108 142.189, 413.558 139.985, 418.872 140.032 C 422.132 140.060, 422.320 140.200, 420.721 141.414 C 419.114 142.632, 419.099 142.824, 420.563 143.386 C 421.640 143.799, 422.351 143.375, 422.678 142.124 C 423.061 140.659, 424.988 139.879, 431.335 138.619 C 435.826 137.728, 441.041 136.999, 442.924 136.999 L 446.349 137 444.350 134.750 C 443.251 133.512, 438.937 127.775, 434.762 122 C 430.588 116.225, 424.846 109.475, 422.002 107 C 419.158 104.525, 415.279 100.180, 413.381 97.343 C 411.483 94.507, 409.159 91.891, 408.217 91.530 C 407.125 91.111, 407.501 91.914, 409.252 93.741 C 410.763 95.319, 412 97.386, 412 98.335 C 412 100.426, 404.660 113.623, 401.775 116.721 C 397.129 121.708, 390.822 121.709, 386.186 116.724 C 384.037 114.413, 382.888 108.779, 384.281 107.386 C 385.292 106.375, 387 108.033, 387 110.024 C 387 112.399, 389.867 114, 394.118 114 C 396.700 114, 398.340 112.992, 402.101 109.090 C 404.704 106.389, 407.346 103.126, 407.972 101.840 C 408.853 100.028, 408.606 100.150, 406.879 102.378 C 404.207 105.823, 395.681 110.004, 391.500 109.920 C 388.953 109.869, 389.302 109.587, 393.805 108.053 C 399.398 106.148, 403.502 103.013, 404.275 100.056 C 404.893 97.693, 402.310 91.691, 401.019 92.488 C 400.458 92.835, 400 92.674, 400 92.132 C 400 91.590, 398.650 90.473, 397 89.650 C 395.350 88.827, 394 88.546, 394 89.026 C 394 89.505, 392.360 89.213, 390.356 88.375 L 386.712 86.853 381.378 92.121 C 378.444 95.018, 375.337 98.876, 374.475 100.694 C 372.453 104.955, 370.664 104.871, 367.606 100.371 L 365.141 96.743 372.070 88.132 C 379.058 79.449, 380.249 77.307, 377.500 78.362 C 376.675 78.678, 376 78.501, 376 77.969 C 376 77.436, 375.663 77.096, 375.250 77.212 C 374.837 77.329, 373.517 76.879, 372.315 76.212 C 368.972 74.357, 365.403 76.275, 362.049 81.728 C 356.347 91.003, 356.671 90.757, 352.846 88.701 C 345.126 84.550, 345.243 84.899, 348.829 76.740 C 352.829 67.638, 353.512 64.589, 351.368 65.412 C 350.361 65.799, 349.637 65.327, 349.309 64.073 C 348.776 62.037, 346.403 60.633, 344.979 61.513 C 344.516 61.799, 343.851 61.568, 343.500 61 C 343.149 60.432, 342.443 60.226, 341.931 60.543 C 341.419 60.859, 341 60.641, 341 60.059 C 341 59.477, 340.073 59, 338.941 59 C 337.809 59, 337.160 58.550, 337.500 58 C 338.075 57.070, 333.520 56.528, 328.500 56.930 C 326.956 57.053, 326.816 56.876, 327.885 56.152 C 330.121 54.639, 325.453 52.692, 321.410 53.451 C 318.695 53.960, 318.141 53.797, 318.591 52.622 C 319.008 51.537, 318.494 51.232, 316.604 51.439 C 315.203 51.593, 314.295 51.332, 314.587 50.859 C 315.036 50.133, 314.021 49.865, 311.464 50.036 C 311.170 50.055, 310.197 49.340, 309.303 48.446 C 308.303 47.446, 306.594 46.979, 304.863 47.233 C 302.470 47.585, 302.232 47.424, 303.274 46.162 C 304.318 44.899, 304.096 44.754, 301.785 45.193 C 300.292 45.477, 298.937 45.310, 298.774 44.821 C 298.611 44.333, 296.008 43.750, 292.989 43.526 C 289.970 43.302, 285.700 42.790, 283.500 42.388 C 281.300 41.986, 277.925 41.622, 276 41.579 C 274.075 41.535, 272.275 41.214, 272 40.864 C 271.216 39.867, 242.961 39.209, 238.500 40.083 M 243.250 58.956 C 242.012 61.123, 241 63.166, 241 63.496 C 241 64.608, 253.336 63.516, 253.714 62.370 C 254.153 61.038, 248.376 54.997, 246.673 55.008 C 246.028 55.012, 244.488 56.789, 243.250 58.956 M 338.500 61 C 338.160 61.550, 338.359 62, 338.941 62 C 339.523 62, 340 61.550, 340 61 C 340 60.450, 339.802 60, 339.559 60 C 339.316 60, 338.840 60.450, 338.500 61 M 355.711 70.789 C 353.077 76.130, 350.939 80.838, 350.961 81.250 C 350.982 81.662, 352.286 82, 353.858 82 C 356.487 82, 357.049 81.271, 360.907 72.850 C 365.170 63.544, 365.469 60.969, 362.281 61.039 C 361.039 61.066, 359.051 64.015, 355.711 70.789 M 248.936 68.493 C 247.756 69.672, 245.120 70.061, 238.071 70.094 C 228.826 70.138, 219.417 72.207, 212.668 75.679 C 208.184 77.986, 194.018 92.045, 191.803 96.385 C 190.448 99.043, 189.968 101.417, 190.333 103.664 C 190.764 106.323, 190.532 107.016, 189.187 107.079 C 188.146 107.128, 187.979 107.351, 188.750 107.662 C 189.438 107.940, 190 108.606, 190 109.142 C 190 109.679, 189.474 109.793, 188.830 109.395 C 188.043 108.909, 187.869 109.217, 188.299 110.336 C 188.650 111.251, 188.501 112, 187.969 112 C 187.436 112, 187 112.498, 187 113.107 C 187 113.716, 187.685 113.951, 188.523 113.629 C 189.778 113.148, 189.854 113.404, 188.954 115.086 C 187.740 117.354, 189.404 120.486, 191.225 119.361 C 191.774 119.021, 192.582 119.324, 193.020 120.032 C 193.458 120.741, 194.653 121.382, 195.676 121.458 C 196.698 121.533, 198.090 121.937, 198.768 122.356 C 199.463 122.786, 200 122.631, 200 122 C 200 121.385, 200.404 121.132, 200.898 121.437 C 201.392 121.742, 206.895 119.720, 213.126 116.944 C 236.146 106.687, 255.254 101.268, 271.500 100.390 C 282.296 99.807, 290.500 101.368, 290.500 104.006 C 290.500 105.672, 288.209 106.922, 277.827 110.922 C 273.606 112.548, 268.386 114.994, 266.226 116.357 C 255.942 122.849, 241.990 130.825, 242.577 129.876 C 242.937 129.293, 248.618 125.258, 255.200 120.908 C 261.783 116.559, 266.661 113, 266.041 113 C 264.076 113, 245.764 120.117, 239 123.510 C 229.703 128.174, 226.173 128.977, 210.783 129.930 C 198.652 130.682, 196.341 131.123, 190.783 133.748 C 185.506 136.242, 167.859 147.998, 164.500 151.258 C 163.168 152.551, 169.831 149.199, 173 146.982 C 178.858 142.884, 193.952 136.092, 199.434 135.088 C 209.236 133.291, 223 133.844, 223 136.034 C 223 136.474, 220.863 137.600, 218.250 138.535 C 202.646 144.120, 181.226 156.992, 174.591 164.771 C 172.618 167.084, 182.563 162.859, 210 149.726 C 216.325 146.699, 224.875 143.009, 229 141.527 C 244.003 136.135, 283.966 128.016, 295.550 128.005 C 298.915 128.002, 302.133 127.467, 302.800 126.800 C 304.435 125.165, 304.308 121.496, 302.494 117.988 C 300.578 114.283, 295 90.927, 295 86.611 C 295 83.317, 297.640 79.953, 301.211 78.695 C 303.769 77.794, 318.535 82.406, 323.001 85.501 C 325.148 86.989, 327.547 89.186, 328.331 90.383 C 329.195 91.700, 331.728 93.065, 334.748 93.839 C 343.501 96.082, 347.187 101.684, 346.873 112.266 C 346.674 118.996, 346.902 119.883, 350.160 125 C 354.973 132.562, 355.415 134, 352.929 134 C 351.824 134, 349.153 133.098, 346.993 131.997 C 344.833 130.895, 340.770 129.501, 337.964 128.899 C 331.058 127.418, 332.221 126.739, 339.394 128.065 C 342.546 128.648, 345.516 128.984, 345.992 128.812 C 346.468 128.641, 345.372 125.300, 343.556 121.390 C 340.658 115.149, 339.575 113.866, 334.695 110.890 C 331.637 109.025, 328.655 106.466, 328.068 105.203 C 326.549 101.936, 326.714 101.686, 329.223 103.443 C 331.623 105.125, 337 105.574, 337 104.092 C 337 103.593, 334.754 102.609, 332.008 101.905 C 328.818 101.088, 326.808 99.971, 326.441 98.813 C 326.124 97.816, 325.397 97, 324.826 97 C 324.254 97, 324.063 97.721, 324.401 98.603 C 324.739 99.485, 325.670 103.197, 326.468 106.853 C 327.267 110.509, 328.218 114.520, 328.582 115.768 C 329.100 117.547, 328.448 118.784, 325.550 121.518 C 323.519 123.433, 321.090 125, 320.151 125 C 318.242 125, 314 127.687, 314 128.897 C 314 129.327, 319.512 130.458, 326.250 131.410 C 343.322 133.822, 354.528 136.594, 360.685 139.929 L 365.942 142.776 363.144 138.638 C 355.715 127.653, 353.662 122.899, 353.892 117.216 C 354.061 113.038, 353.508 110.543, 351.546 106.625 C 348.308 100.157, 347.219 98.912, 337.781 90.881 C 329.311 83.674, 319.548 78.847, 299.242 71.827 C 287.812 67.875, 287.736 67.864, 269.138 67.400 C 253.172 67.002, 250.270 67.159, 248.936 68.493 M 382.742 77.812 C 383.056 80.041, 381.914 81.692, 376.060 87.473 C 372.177 91.308, 369 94.994, 369 95.664 C 369 98.867, 371.246 97.413, 375.819 91.250 C 378.573 87.538, 381.991 83.409, 383.414 82.076 C 386.459 79.221, 386.688 77.439, 384.182 76.098 C 382.605 75.253, 382.415 75.480, 382.742 77.812 M 179.446 78.087 C 178.416 79.755, 180.733 81.667, 182.113 80.287 C 183.267 79.133, 182.545 77, 181 77 C 180.515 77, 179.816 77.489, 179.446 78.087 M 300.667 82.667 C 299.439 83.894, 300.003 88.409, 303.004 101.404 C 304.643 108.501, 306.917 115.889, 308.058 117.823 C 310.057 121.210, 310.082 122.046, 308.377 128.500 C 308.086 129.600, 308.906 128.814, 310.198 126.753 C 313.079 122.158, 315.318 120.530, 320.779 119.059 C 325.787 117.711, 326.682 115.446, 321.750 116.604 C 314.943 118.201, 313.637 117.798, 312.272 113.679 C 311.575 111.578, 310.235 105.394, 309.294 99.938 C 307.127 87.380, 307.448 86.902, 316.421 89.293 C 324.565 91.463, 324.830 91.441, 321.560 88.868 C 320.069 87.696, 315.396 85.671, 311.175 84.368 C 302.952 81.831, 301.704 81.629, 300.667 82.667 M 115.297 90.255 C 110.937 93.352, 108.654 97.484, 109.481 100.780 C 109.848 102.241, 111.914 105.353, 114.074 107.696 C 116.233 110.039, 118 112.817, 118 113.871 C 118 116.049, 115.564 117.314, 112.959 116.487 C 111.507 116.026, 111.200 116.545, 111.200 119.464 C 111.200 121.790, 111.669 123, 112.569 123 C 113.321 123, 113.704 122.392, 113.418 121.648 C 113.133 120.903, 114.030 119.555, 115.415 118.648 C 120.140 115.552, 120.422 116.994, 115.977 121.523 L 111.538 126.046 108.519 122.662 C 106.859 120.801, 103.588 117.828, 101.250 116.055 C 98.912 114.282, 97 112.398, 97 111.868 C 97 109.889, 102.065 106.204, 104.067 106.728 C 106.618 107.395, 108.567 110.833, 107.180 112.220 C 105.935 113.465, 104 112.382, 104 110.441 C 104 108.508, 101.568 108.611, 99.905 110.615 C 97.847 113.094, 102.218 116.325, 106.414 115.426 C 110.628 114.523, 111 114.215, 111 111.632 C 111 108.448, 109.076 106.403, 104.811 105.053 C 98.876 103.174, 93.234 107.030, 91.481 114.164 C 90.893 116.558, 91.377 117.180, 96.266 120.307 C 99.257 122.221, 103.684 126.084, 106.103 128.893 C 108.521 131.701, 110.977 133.999, 111.559 134 C 113.217 134, 121.125 121.935, 121.344 119.070 C 121.514 116.852, 122.115 116.423, 125.735 115.938 C 130.918 115.242, 133.434 113.050, 135.622 107.321 C 137.178 103.246, 137.185 102.756, 135.706 101.277 C 133.900 99.471, 127.846 99.347, 123.431 101.026 C 119.744 102.428, 117.576 100.547, 120.441 98.433 C 121.509 97.645, 123.210 97, 124.223 97 C 127.189 97, 127.545 94.081, 124.890 91.516 C 121.273 88.020, 118.886 87.706, 115.297 90.255 M 116.589 94.077 C 113.667 97.549, 113.313 100.575, 115.469 103.653 C 117.590 106.680, 120.237 107.021, 125.015 104.882 C 127.327 103.847, 129.619 103, 130.109 103 C 131.682 103, 131.063 105.650, 128.827 108.493 C 126.850 111.006, 126.828 111.162, 128.588 110.220 C 130.955 108.954, 133.484 106.097, 134.317 103.750 C 134.825 102.317, 134.353 102, 131.712 102 C 129.938 102, 126.925 102.448, 125.016 102.995 C 120.803 104.204, 118.305 103.537, 117.496 100.987 C 116.508 97.875, 118.689 95, 122.035 95 C 125.418 95, 125.918 93.562, 123.066 92.035 C 120.165 90.483, 119.414 90.720, 116.589 94.077 M 312 94.560 C 312 95.747, 312.879 96.046, 315.673 95.810 C 320.948 95.365, 321.294 93, 316.083 93 C 313.050 93, 312 93.401, 312 94.560 M 315.192 97.713 C 313.274 98.080, 312.937 98.689, 313.192 101.327 C 313.446 103.947, 313.892 104.458, 315.750 104.262 C 316.988 104.131, 318 104.438, 318 104.944 C 318 105.451, 316.988 106.196, 315.750 106.600 C 313.675 107.277, 313.772 107.414, 317 108.367 C 320.450 109.386, 320.461 109.405, 317.750 109.767 C 315.604 110.052, 315 110.667, 315 112.566 C 315 115.263, 316.991 115.714, 321.435 114.025 C 324.464 112.873, 324.521 112.442, 322.316 107.372 C 321.390 105.242, 320.733 102.943, 320.857 102.261 C 321.136 100.728, 319.188 96.951, 318.215 97.136 C 317.822 97.211, 316.462 97.471, 315.192 97.713 M 269 101.694 C 253.681 103.333, 230.830 110.447, 215.193 118.446 C 201.205 125.601, 197.177 129.427, 208.787 124.531 C 219.714 119.922, 248.791 110.545, 258.533 108.488 C 262.915 107.563, 271.351 106.560, 277.279 106.260 C 283.208 105.960, 288.284 105.350, 288.559 104.905 C 289.239 103.804, 279.378 100.961, 275.568 101.160 C 273.881 101.248, 270.925 101.489, 269 101.694 M 444.506 108.994 C 443.507 110.097, 443.155 111, 443.723 111 C 444.981 111, 447.475 108.142, 446.803 107.470 C 446.538 107.205, 445.504 107.890, 444.506 108.994 M 411.193 113.675 C 407.436 115.527, 402 122.803, 402 125.980 C 402 127.146, 402.715 129.481, 403.588 131.170 C 405.065 134.026, 405.477 134.206, 409.497 133.753 C 416.531 132.960, 422.844 129.316, 426.113 124.160 C 429.630 118.616, 429.676 117.585, 426.545 114.455 C 423.573 111.483, 416.383 111.118, 411.193 113.675 M 61.980 117.524 C 61.284 118.362, 60.968 119.301, 61.276 119.610 C 61.585 119.919, 62.340 119.233, 62.954 118.086 C 64.264 115.638, 63.778 115.358, 61.980 117.524 M 412.500 118.141 C 409.352 119.923, 406 123.233, 406 124.559 C 406 125.225, 407.166 126.534, 408.592 127.468 C 410.724 128.865, 411.679 128.962, 413.974 128.011 C 417.867 126.398, 422.254 121.563, 421.834 119.349 C 421.414 117.134, 415.607 116.383, 412.500 118.141 M 81.877 122.299 C 76.756 126.198, 74.410 135.268, 77.750 138.256 C 81.107 141.260, 94.521 147.972, 97.194 147.986 C 103.527 148.019, 108.168 138.958, 104.605 133.519 C 102.296 129.996, 98.528 130.224, 94.901 134.106 C 91.392 137.862, 91.350 138.314, 94.351 139.920 C 97.438 141.573, 101.393 140.952, 101.813 138.750 C 102.064 137.434, 101.479 137, 99.451 137 C 97.168 137, 96.946 136.770, 98 135.500 C 98.685 134.675, 100.090 134, 101.122 134 C 102.580 134, 103 134.738, 103 137.300 C 103 143.094, 99.111 144.646, 93.500 141.092 C 88.930 138.197, 81.995 131.401, 82.043 129.866 C 82.066 129.114, 83.766 130.412, 85.820 132.750 C 87.874 135.088, 89.767 136.999, 90.027 136.999 C 91.161 136.996, 90.318 124.088, 89.087 122.605 C 87.513 120.708, 84.154 120.566, 81.877 122.299 M 85.218 125.154 C 85.464 125.895, 86.468 126.655, 87.448 126.846 C 88.588 127.066, 89.069 126.706, 88.782 125.846 C 88.536 125.105, 87.532 124.345, 86.552 124.154 C 85.412 123.934, 84.931 124.294, 85.218 125.154 M 324.813 125.683 C 325.534 125.972, 326.397 125.936, 326.729 125.604 C 327.061 125.272, 326.471 125.036, 325.417 125.079 C 324.252 125.127, 324.015 125.364, 324.813 125.683 M 84 127.893 C 84 128.384, 84.739 129.069, 85.641 129.416 C 87.014 129.943, 87.076 129.796, 86.019 128.523 C 84.579 126.788, 84 126.607, 84 127.893 M 284.500 135.088 C 263.969 138.683, 240.665 145.560, 225.309 152.553 C 216.335 156.640, 202.611 164.944, 203.447 165.781 C 203.758 166.092, 201.310 167.869, 198.006 169.731 C 194.703 171.593, 192 173.289, 192 173.501 C 192 173.713, 195.037 172.592, 198.750 171.009 C 218.872 162.435, 244.887 152.775, 255 150.123 C 268.563 146.565, 299.959 141.258, 312.595 140.386 C 320.779 139.821, 341.923 141.266, 345.488 142.634 C 346.319 142.953, 347 142.747, 347 142.175 C 347 139.929, 331.826 137.500, 317.795 137.500 C 304.417 137.500, 304.077 137.446, 303.526 135.250 C 302.818 132.425, 299.850 132.400, 284.500 135.088 M 432.500 140.160 C 430.300 140.684, 427.488 141.322, 426.250 141.576 C 425.012 141.830, 424 142.538, 424 143.148 C 424 144.404, 432.288 143.633, 437.817 141.863 C 439.641 141.279, 441.365 141.032, 441.648 141.315 C 442.326 141.993, 440.282 145.882, 437.625 148.968 L 435.500 151.436 438.971 148.862 C 443.377 145.595, 446.441 141.522, 445.562 140.100 C 444.754 138.794, 438.104 138.824, 432.500 140.160 M 447 139.378 C 447 139.585, 447.788 140.373, 448.750 141.128 C 450.336 142.371, 450.371 142.336, 449.128 140.750 C 447.821 139.084, 447 138.555, 447 139.378 M 67.172 145.255 C 65.891 145.871, 63.757 148.520, 62.428 151.142 L 60.013 155.908 63.256 158.300 C 65.040 159.616, 69.425 162.417, 73 164.525 C 76.575 166.632, 80.565 169.170, 81.868 170.165 C 83.170 171.159, 84.604 171.745, 85.054 171.467 C 86.217 170.748, 95 158.067, 95 157.107 C 95 156.669, 94.092 155.488, 92.983 154.484 C 91.018 152.707, 90.892 152.729, 88.178 155.329 C 84.756 158.608, 83.572 158.639, 78.518 155.579 C 74.941 153.414, 74.566 152.812, 74.838 149.657 C 75.069 146.974, 74.668 145.893, 73.136 145.073 C 70.735 143.788, 70.188 143.804, 67.172 145.255 M 305 145.022 C 295.069 146.414, 279.112 150.024, 273.200 152.216 C 268.844 153.831, 267.293 155.099, 264.491 159.341 C 262.615 162.178, 260.378 166.195, 259.520 168.267 C 257.985 171.970, 258 172.049, 260.382 172.955 C 261.715 173.462, 263.161 174.467, 263.595 175.188 C 264.141 176.097, 263.787 176.044, 262.442 175.017 C 260.527 173.555, 260.526 173.565, 262.405 175.767 C 263.453 176.995, 265.195 178, 266.277 178 C 267.913 178, 268.035 178.253, 267 179.500 C 266.072 180.618, 266.056 181, 266.937 181 C 267.586 181, 267.797 181.520, 267.405 182.155 C 266.959 182.876, 267.131 183.037, 267.862 182.585 C 268.506 182.187, 268.766 181.330, 268.440 180.681 C 268.114 180.031, 268.733 180.502, 269.815 181.727 L 271.783 183.954 275.642 180.843 C 281.424 176.180, 292.675 171.200, 300.017 170.054 C 311.087 168.325, 326.560 172.041, 333.438 178.080 C 335.239 179.661, 337.002 180.665, 337.356 180.311 C 337.710 179.956, 338.064 176.929, 338.141 173.583 C 338.253 168.792, 338.479 169.811, 339.206 178.377 C 340.130 189.253, 340.130 189.255, 337.565 191.932 C 336.154 193.405, 335 195.233, 335 195.995 C 335 196.756, 336.855 200.450, 339.122 204.202 C 341.389 207.954, 343.820 212.699, 344.524 214.747 C 345.696 218.158, 345.623 218.643, 343.652 220.552 C 341.638 222.500, 339.354 222.854, 340.473 221.044 C 340.751 220.595, 340.308 219.671, 339.489 218.991 C 338.670 218.311, 338 217.351, 338 216.856 C 338 216.362, 336.833 214.193, 335.406 212.037 C 333.622 209.341, 331.827 207.912, 329.656 207.460 C 327.920 207.098, 324.519 205.715, 322.098 204.387 C 319.677 203.058, 317.612 202.090, 317.509 202.235 C 317.407 202.381, 316.626 204.300, 315.773 206.500 C 313.815 211.556, 308.385 216.007, 303.368 216.669 C 298.982 217.247, 289.529 214.144, 285.791 210.898 C 283.680 209.064, 283.853 209.081, 288 211.107 C 290.475 212.316, 294.725 213.894, 297.444 214.613 C 301.843 215.777, 302.837 215.721, 306.444 214.106 C 310.452 212.312, 315.277 208, 313.277 208 C 312.709 208, 310.629 208.675, 308.654 209.500 C 306.680 210.325, 303.267 211, 301.070 211 C 296.452 211, 286.775 207.639, 284.905 205.386 C 283.911 204.188, 282.394 203.981, 278.064 204.453 C 271.386 205.180, 259.500 202.970, 259.500 201.002 C 259.500 200.274, 261.072 199.149, 262.993 198.502 C 266.481 197.328, 266.483 197.325, 263.795 196.812 C 262.314 196.529, 260.671 196.729, 260.144 197.256 C 259.532 197.868, 258.772 197.442, 258.042 196.079 C 257.414 194.905, 256.461 194.215, 255.925 194.546 C 255.389 194.878, 255.074 194.607, 255.225 193.945 C 255.744 191.674, 250.671 192.238, 248.181 194.728 C 245.923 196.986, 245.787 197.712, 246.195 205.326 C 246.688 214.506, 250.302 223.618, 253.349 223.361 C 254.257 223.285, 255 223.670, 255 224.218 C 255 224.766, 255.661 224.960, 256.468 224.651 C 257.275 224.341, 258.206 224.525, 258.537 225.060 C 258.868 225.595, 259.557 225.774, 260.069 225.457 C 260.581 225.141, 261 225.434, 261 226.108 C 261 226.782, 261.287 227.047, 261.637 226.696 C 261.988 226.346, 263.450 226.896, 264.887 227.920 C 266.324 228.943, 267.878 229.765, 268.341 229.746 C 269.642 229.694, 276.943 234.399, 276.973 235.309 C 276.988 235.754, 277.470 235.828, 278.044 235.473 C 278.618 235.118, 279.666 235.308, 280.372 235.894 C 281.079 236.480, 282.522 237.104, 283.578 237.279 C 284.635 237.454, 286.512 238.154, 287.750 238.834 C 288.988 239.514, 290 239.818, 290 239.510 C 290 239.201, 291.350 239.647, 293 240.500 C 294.650 241.353, 296 242.490, 296 243.026 C 296 243.562, 296.675 244, 297.500 244 C 298.325 244, 299 244.675, 299 245.500 C 299 246.325, 298.495 247, 297.878 247 C 297.107 247, 297.150 247.475, 298.013 248.515 C 299.047 249.761, 298.919 250.339, 297.295 251.765 C 296.209 252.719, 295.004 254.778, 294.618 256.341 C 294.096 258.455, 293.479 259.030, 292.208 258.588 C 290.900 258.134, 290.969 258.361, 292.500 259.555 C 294.374 261.017, 294.390 261.178, 292.750 262.107 C 290.579 263.338, 290.511 265.368, 292.571 267.429 C 294.494 269.351, 296 269.455, 296 267.666 C 296 265.777, 303.090 255.891, 310.339 247.671 C 325.248 230.765, 324.861 231.085, 333 228.949 C 341.932 226.604, 345.086 226.053, 344.544 226.928 C 344.324 227.284, 345.462 228.159, 347.072 228.872 C 348.840 229.654, 350 230.927, 350 232.084 C 350 234.368, 349.629 234.397, 342.799 232.628 C 336.942 231.112, 331.663 231.497, 329.947 233.564 C 329.092 234.594, 329.468 235.747, 331.549 238.475 C 334.070 241.781, 334.532 241.984, 337.884 241.270 C 339.873 240.847, 347.020 240.629, 353.768 240.786 C 364.478 241.035, 366.117 240.859, 366.677 239.398 C 367.464 237.347, 359.858 221.795, 350.029 205.360 C 345.321 197.489, 343.031 192.659, 343.218 191 C 343.428 189.138, 345.350 187.280, 350.750 183.721 C 359.095 178.220, 359.472 177.019, 355.929 167.225 C 354.790 164.076, 353.200 159.370, 352.395 156.766 C 350.424 150.388, 347.466 147.441, 341.661 146.069 C 335.132 144.527, 313.034 143.896, 305 145.022 M 70.171 147.295 C 68.890 148.838, 70.310 151.545, 71.888 150.569 C 73.219 149.746, 73.355 147.337, 72.113 146.570 C 71.626 146.269, 70.751 146.595, 70.171 147.295 M 70.500 154.549 C 73.399 156.942, 86.365 165, 87.318 165 C 87.575 165, 88.036 164.348, 88.342 163.551 C 88.714 162.582, 88.418 162.286, 87.449 162.658 C 86.652 162.964, 86 162.796, 86 162.286 C 86 161.308, 69.986 151.974, 68.414 152.036 C 67.911 152.056, 68.850 153.187, 70.500 154.549 M 470.750 152.689 C 468.656 153.237, 468.511 154.949, 470.347 157.460 C 471.281 158.737, 471.913 158.949, 472.406 158.151 C 472.798 157.518, 473.879 157.007, 474.809 157.015 C 476.277 157.029, 476.303 157.170, 475 158.091 C 473.667 159.034, 473.667 159.104, 475 158.722 C 476.603 158.263, 476.486 155.322, 474.783 153.250 C 473.715 151.951, 473.624 151.938, 470.750 152.689 M 251.287 157.446 C 238.981 161.915, 235.552 164.162, 233.601 169.039 C 232.720 171.240, 232 173.215, 232 173.429 C 232 173.948, 242.436 170.697, 247.758 168.519 C 252.119 166.734, 261 157.930, 261 155.392 C 261 154.626, 260.887 154.022, 260.750 154.050 C 260.613 154.077, 256.354 155.606, 251.287 157.446 M 89.991 157.511 C 88.986 158.722, 89.047 159, 90.319 159 C 92.185 159, 93.406 157.369, 92.130 156.580 C 91.633 156.273, 90.671 156.692, 89.991 157.511 M 476.692 160.360 C 476.346 161.262, 475.374 162, 474.531 162 C 471.293 162, 473.439 165.570, 477.253 166.527 C 480.030 167.224, 480.122 169, 477.382 169 C 476.557 169, 476.160 168.550, 476.500 168 C 476.840 167.450, 476.593 167, 475.952 167 C 475.311 167, 475.010 167.563, 475.283 168.250 C 478.398 176.080, 479.346 178, 480.097 178 C 480.581 178, 480.913 179.012, 480.834 180.250 C 480.716 182.092, 486.091 207.996, 487.601 212.863 C 487.938 213.949, 488.324 213.976, 489.501 212.999 C 490.983 211.770, 490.578 209.525, 489.045 210.472 C 488.596 210.750, 488.015 209.857, 487.753 208.488 C 487.491 207.120, 487.651 206, 488.107 206 C 488.564 206, 488.678 205.325, 488.362 204.500 C 488.045 203.675, 488.284 203, 488.893 203 C 489.502 203, 490 202.325, 490 201.500 C 490 200.675, 489.550 200, 489 200 C 488.450 200, 488 200.450, 488 201 C 488 201.550, 487.472 202, 486.826 202 C 486.180 202, 486.664 200.922, 487.901 199.605 C 489.268 198.151, 489.746 196.961, 489.119 196.573 C 488.552 196.223, 488.328 195.308, 488.623 194.541 C 489.015 193.517, 488.538 193.283, 486.829 193.660 C 485.511 193.950, 484.934 193.810, 485.500 193.337 C 486.050 192.877, 487.175 191.628, 488 190.563 C 489.364 188.802, 489.341 188.685, 487.750 189.281 C 486.561 189.727, 486 189.448, 486 188.410 C 486 187.454, 486.468 187.163, 487.250 187.633 C 488.196 188.201, 488.185 187.996, 487.208 186.789 C 486.153 185.486, 486.153 185.113, 487.208 184.747 C 487.919 184.501, 487.078 183.981, 485.340 183.590 C 482.271 182.901, 482.221 182.804, 483.584 180.190 C 485.393 176.723, 485.362 174.962, 483.442 172.221 C 482.586 170.998, 481.690 168.987, 481.452 167.752 C 481.214 166.517, 480.591 165.364, 480.066 165.189 C 479.542 165.014, 479.322 164.324, 479.578 163.657 C 479.834 162.989, 479.432 161.605, 478.683 160.581 C 477.458 158.905, 477.259 158.883, 476.692 160.360 M 431.438 163.068 C 429.730 164.956, 429.697 165.371, 431.064 167.818 C 433.913 172.919, 442 171.299, 442 165.629 C 442 164.403, 441.460 162.860, 440.800 162.200 C 438.868 160.268, 433.524 160.763, 431.438 163.068 M 435 163.893 C 435 164.997, 437.595 166.072, 438.375 165.292 C 438.689 164.978, 438.706 164.334, 438.414 163.861 C 437.712 162.725, 435 162.750, 435 163.893 M 226.214 167.001 C 220.827 169.494, 219.658 170.524, 218.043 174.205 C 217.006 176.567, 215.866 180.087, 215.510 182.026 C 214.921 185.229, 215.081 185.571, 217.262 185.751 C 219.052 185.899, 220.861 184.560, 224.383 180.481 C 228.745 175.429, 234.934 163.940, 233.237 164.046 C 232.832 164.071, 229.671 165.401, 226.214 167.001 M 240.250 166.501 C 237.363 167.813, 235 169.113, 235 169.388 C 235 169.869, 246.058 165.247, 246.917 164.408 C 247.938 163.408, 245.081 164.306, 240.250 166.501 M 293.699 172.536 C 288.813 174.329, 280 179.120, 280 179.983 C 280 180.348, 283.262 179.530, 287.250 178.165 C 301.455 173.302, 316.774 174.267, 327.782 180.718 C 331.923 183.145, 333.919 183.296, 332.549 181.079 C 331.129 178.782, 323.153 174.123, 318.040 172.605 C 311.478 170.656, 298.919 170.620, 293.699 172.536 M 208.771 175.552 C 201.013 179.534, 199.637 181.280, 197.010 190.463 C 195.408 196.068, 195.344 196.960, 196.621 195.900 C 197.461 195.203, 200.888 194.137, 204.238 193.531 L 210.327 192.430 212.695 183.965 C 213.997 179.309, 215.326 174.713, 215.648 173.750 C 216.383 171.553, 216.749 171.458, 208.771 175.552 M 479.507 173.988 C 478.659 175.362, 480.753 178, 482.692 178 C 484.725 178, 483.948 173.606, 481.843 173.205 C 480.932 173.031, 479.881 173.384, 479.507 173.988 M 232 176.652 C 230.075 177.518, 229.031 178.428, 229.680 178.673 C 230.329 178.919, 232.579 178.213, 234.680 177.104 C 239.184 174.728, 237.071 174.372, 232 176.652 M 294.500 177.424 C 291.200 178.183, 286.250 179.764, 283.500 180.940 C 280.750 182.115, 279.625 182.817, 281 182.500 C 296.017 179.037, 304.192 177.883, 310.500 178.333 C 315.145 178.665, 316.737 178.534, 315.234 177.943 C 310.999 176.279, 300.614 176.019, 294.500 177.424 M 54.255 180.214 C 50.089 181.293, 48.799 183.515, 46.008 194.413 C 43.251 205.179, 42.971 204.810, 56.283 207.926 C 66.404 210.294, 69.596 212.004, 68.625 214.535 C 67.732 216.861, 65.439 215.737, 65.813 213.157 C 66.229 210.287, 62.501 210.195, 60.980 213.038 C 59.442 215.912, 60.583 218.585, 63.943 219.976 C 69.436 222.252, 74.386 216.294, 70.536 212.040 C 68.921 210.256, 68.949 210.144, 71.089 209.830 C 72.746 209.588, 73.728 208.344, 74.794 205.134 C 76.484 200.045, 76.765 200.328, 66.834 197.107 C 55.295 193.366, 54.822 192.997, 62 193.347 C 65.575 193.522, 70.004 194.302, 71.843 195.082 C 75.084 196.457, 75.258 196.409, 77.588 193.500 C 80.468 189.903, 80.619 187.871, 78.171 185.655 C 75.908 183.606, 72.013 183.523, 69.441 185.468 C 66.839 187.436, 66 187.360, 66 185.155 C 66 181.137, 60.165 178.682, 54.255 180.214 M 448.273 181.065 C 447.775 182.969, 447.245 183.078, 441.489 182.462 C 437.190 182.002, 435.023 182.154, 434.531 182.950 C 433.887 183.992, 439.122 197.735, 441.296 200.712 C 441.956 201.615, 444.128 200.945, 449.841 198.074 C 454.053 195.958, 459.300 193.665, 461.500 192.979 C 470.419 190.200, 473.282 187.291, 469.232 185.124 C 468.260 184.604, 463.760 183.855, 459.232 183.460 C 452.112 182.839, 451 182.489, 451 180.871 C 451 178.342, 448.947 178.488, 448.273 181.065 M 55.655 183.829 C 54.745 184.835, 54.041 186.747, 54.090 188.079 C 54.167 190.138, 54.321 190.015, 55.119 187.250 C 56.556 182.273, 62 183.023, 62 188.198 C 62 188.768, 61.074 188.991, 59.943 188.695 C 58.239 188.250, 58.092 188.406, 59.086 189.604 C 60.127 190.858, 60.534 190.827, 62.143 189.370 C 64.413 187.316, 64.495 185.638, 62.429 183.571 C 60.341 181.484, 57.686 181.584, 55.655 183.829 M 191.377 186.194 C 185.787 192.033, 182.850 197.598, 178.867 209.905 C 175.944 218.938, 174.780 221.114, 170.040 226.405 C 167.036 229.757, 165.911 231.297, 167.540 229.827 C 169.168 228.357, 174.834 224.708, 180.131 221.717 C 189.045 216.685, 195.861 212.313, 193.495 213.146 C 192.943 213.341, 190.345 214.352, 187.723 215.394 C 185.101 216.436, 182.699 217.033, 182.386 216.720 C 181.214 215.547, 183.386 211.501, 187.620 206.976 C 191.323 203.016, 192.309 201.031, 194.051 194.033 C 196.999 182.189, 196.530 180.813, 191.377 186.194 M 357.250 183.648 C 355.462 184.529, 354 185.653, 354 186.145 C 354 186.638, 355.800 186.122, 358 185 C 361.756 183.084, 362.971 181.971, 361.250 182.023 C 360.837 182.035, 359.038 182.767, 357.250 183.648 M 275.507 183.989 C 275.157 184.555, 275.558 184.723, 276.448 184.382 C 278.180 183.717, 278.497 183, 277.059 183 C 276.541 183, 275.843 183.445, 275.507 183.989 M 292.706 186.220 C 288.420 187.334, 285.105 188.438, 285.340 188.674 C 285.786 189.119, 302.184 185.146, 302.917 184.416 C 303.705 183.629, 300.483 184.199, 292.706 186.220 M 437 184.364 C 437 184.692, 438.688 185.768, 440.750 186.756 C 443.888 188.258, 446.215 188.466, 455 188.026 C 466.865 187.432, 467.022 186.195, 455.319 185.510 C 451.019 185.259, 445.137 184.764, 442.250 184.411 C 439.363 184.058, 437 184.037, 437 184.364 M 482 184.393 C 482 184.609, 482.698 185.054, 483.552 185.382 C 484.442 185.723, 484.843 185.555, 484.493 184.989 C 483.906 184.038, 482 183.583, 482 184.393 M 72.785 186.549 C 72.179 187.154, 75.449 191, 76.570 191 C 76.883 191, 76.995 189.992, 76.820 188.760 C 76.512 186.607, 74.067 185.267, 72.785 186.549 M 240.929 191.090 C 236.910 196.164, 235.947 202.912, 238.376 208.983 C 240.622 214.594, 240.334 216.300, 237.915 211.717 C 236.817 209.637, 235.640 204.951, 235.300 201.305 C 234.712 195.017, 234.598 194.778, 233.070 196.665 C 232.185 197.759, 230.907 198.469, 230.230 198.243 C 229.554 198.018, 228.964 198.658, 228.921 199.667 C 228.873 200.788, 228.641 200.999, 228.324 200.208 C 227.477 198.097, 224.999 200.833, 225.006 203.872 C 225.016 208.975, 227.206 214.297, 230.832 218.032 C 234.986 222.311, 239.689 223.974, 240.639 221.499 C 241.098 220.302, 241.549 220.211, 242.617 221.097 C 244.615 222.756, 244.321 223.815, 241.760 224.180 C 238.268 224.679, 238.455 227.420, 242.057 228.534 C 244.690 229.349, 245.781 230.791, 249.028 237.750 C 251.145 242.287, 252.449 246, 251.924 246 C 250.627 246, 247.209 240.229, 246.444 236.747 C 245.810 233.860, 241.228 228.439, 240.250 229.417 C 239.185 230.482, 243.221 239.048, 245.315 240.168 C 247.203 241.179, 247.255 241.384, 245.755 241.911 C 244.357 242.401, 244.961 243.478, 249.149 247.963 C 251.952 250.963, 253.737 253.588, 253.116 253.795 C 252.495 254.002, 252.230 254.563, 252.526 255.042 C 252.822 255.521, 253.722 255.660, 254.526 255.352 C 255.331 255.043, 255.740 254.388, 255.435 253.895 C 255.131 253.403, 255.352 253, 255.927 253 C 256.562 253, 256.804 254.783, 256.544 257.554 C 256.055 262.778, 257.822 264.376, 260.954 261.542 C 262.469 260.170, 263.248 260.062, 264.970 260.984 L 267.107 262.128 264.554 264.136 C 263.149 265.241, 262 266.760, 262 267.511 C 262 269.402, 270.526 270.638, 272.465 269.029 C 273.261 268.368, 274.382 268.118, 274.956 268.473 C 276.703 269.552, 276.128 270.843, 273.750 271.180 C 272.267 271.391, 271.386 272.305, 271.166 273.861 C 270.974 275.218, 271.248 275.965, 271.811 275.617 C 272.350 275.284, 273.047 275.680, 273.361 276.497 C 273.986 278.126, 278.683 278.253, 280.750 276.696 C 282.776 275.171, 285.194 277.769, 283.936 280.120 C 282.629 282.562, 285.271 283.850, 287.610 281.909 C 288.940 280.805, 289.346 280.868, 290.146 282.297 C 291.619 284.929, 295.837 284.451, 297.182 281.500 C 298.600 278.388, 300.448 278.200, 299.630 281.250 C 299.299 282.488, 299.021 283.837, 299.014 284.250 C 299.006 284.663, 298.152 285, 297.117 285 C 294.728 285, 293.564 288.993, 295.413 290.842 C 297.631 293.060, 300.864 290.738, 300.223 287.387 C 299.862 285.498, 300.057 284.917, 300.882 285.427 C 301.526 285.825, 301.988 286.679, 301.908 287.325 C 301.594 289.867, 302.080 290.788, 304 291.290 C 305.329 291.637, 306 292.654, 306 294.318 C 306 296.451, 305.420 296.922, 302.112 297.481 C 298.902 298.023, 298.311 298.475, 298.728 300.069 C 299.131 301.609, 300.127 302, 303.641 302 C 307.394 302, 308.187 302.363, 308.977 304.439 C 309.878 306.810, 312.750 309, 314.957 309 C 315.597 309, 315.372 307.971, 314.413 306.507 C 313.389 304.945, 313.014 303.078, 313.409 301.507 C 314.216 298.290, 316 298.251, 316 301.450 C 316 302.798, 316.625 304.260, 317.389 304.700 C 318.152 305.140, 318.944 306.400, 319.149 307.500 C 319.364 308.659, 320.462 309.634, 321.760 309.820 C 324.416 310.198, 324.481 309.832, 322.459 305.921 C 320.948 302.999, 321.192 301, 323.059 301 C 323.577 301, 324 301.538, 324 302.196 C 324 304.568, 329.203 310.834, 331.692 311.459 C 334.986 312.286, 335.586 311.582, 334.193 308.524 C 333.416 306.819, 332.549 306.236, 331.429 306.666 C 330.233 307.124, 329.891 306.807, 330.149 305.479 C 330.693 302.668, 332.850 302.576, 334.096 305.311 C 334.714 306.669, 336.205 308.228, 337.407 308.776 C 339.281 309.630, 339.840 309.344, 341.313 306.777 C 342.716 304.333, 343.298 304.003, 344.477 304.981 C 345.272 305.641, 346.195 307.040, 346.529 308.090 C 347.667 311.676, 349 310.008, 349 305 C 349 301.222, 349.367 300, 350.500 300 C 352.108 300, 352.338 301.079, 352.163 307.825 C 352.038 312.679, 353.850 313.176, 355.425 308.720 C 356.544 305.554, 354.057 299.329, 350.267 295.805 C 348.903 294.537, 347.416 292.538, 346.961 291.361 C 346.233 289.478, 345.057 289.138, 337.104 288.508 C 327.934 287.782, 325.435 286.636, 326.571 283.675 C 327.399 281.517, 331.989 280.224, 341.633 279.431 C 350.473 278.704, 353.164 277.764, 351.415 276.015 C 345.905 270.505, 314.146 278.779, 309.127 287.032 C 307.278 290.072, 307.170 290.112, 306.504 288.014 C 306.123 286.811, 306.098 284.290, 306.450 282.413 C 306.957 279.711, 306.765 279, 305.526 279 C 304.357 279, 304.120 278.369, 304.589 276.500 C 305.064 274.609, 304.825 274, 303.608 274 C 301.580 274, 301.499 270.661, 303.487 269.011 C 304.305 268.332, 305.672 268.044, 306.525 268.371 C 307.414 268.712, 308.319 268.333, 308.645 267.483 C 308.958 266.667, 310.118 266, 311.224 266 C 312.797 266, 313.135 266.513, 312.781 268.363 C 312.423 270.237, 312.696 270.631, 314.096 270.265 C 316.444 269.651, 317.257 267.313, 315.373 266.590 C 313.423 265.841, 314.573 264, 316.992 264 C 318.022 264, 319.151 264.900, 319.500 266 C 320.423 268.909, 323 268.518, 323 265.469 C 323 262.246, 325.820 261.034, 327.613 263.486 C 328.690 264.958, 329.216 265.065, 330.430 264.058 C 331.251 263.377, 332.195 261.960, 332.529 260.910 C 332.998 259.430, 334.077 259.001, 337.317 259.004 L 341.500 259.007 338.250 260.989 C 336.462 262.079, 335 263.366, 335 263.849 C 335 264.332, 333.762 265.966, 332.250 267.480 L 329.500 270.233 333 268.774 C 334.925 267.972, 338.863 266.750, 341.750 266.058 L 347 264.801 347 258.025 L 347 251.250 343.875 250.625 C 342.156 250.281, 338.894 249.998, 336.625 249.996 C 331.336 249.991, 326.247 246.936, 325.439 243.281 C 325.101 241.751, 324.705 240.050, 324.557 239.500 C 324.410 238.950, 322.987 240.728, 321.395 243.451 C 319.803 246.174, 315.634 251.124, 312.131 254.451 C 306.760 259.552, 304.135 262.692, 298.873 270.311 C 298.267 271.189, 296.049 270.655, 286.114 267.239 C 279.956 265.121, 262.676 251.820, 258.074 245.656 C 252.400 238.054, 250.255 233.198, 247.295 221.248 C 245.210 212.831, 244.618 207.952, 244.566 198.751 C 244.530 192.289, 244.425 187.001, 244.334 187.001 C 244.243 187, 242.710 188.841, 240.929 191.090 M 70.500 191 C 70.840 191.550, 71.316 192, 71.559 192 C 71.802 192, 72 191.550, 72 191 C 72 190.450, 71.523 190, 70.941 190 C 70.359 190, 70.160 190.450, 70.500 191 M 302.500 195.472 C 297.127 197.243, 300.216 197.319, 306.500 195.570 C 309.492 194.738, 310.496 194.174, 309 194.166 C 307.625 194.159, 304.700 194.747, 302.500 195.472 M 174.574 198.857 C 173.708 200.531, 172.996 202.486, 172.990 203.200 C 172.966 206.407, 167.649 215.415, 161.806 222.148 C 158.297 226.192, 154.219 231.099, 152.744 233.054 C 149.757 237.011, 146.309 244.545, 147.949 243.532 C 148.527 243.174, 149 242.350, 149 241.700 C 149 238.823, 156.764 229.688, 164.131 223.897 C 168.550 220.423, 172.766 216.419, 173.500 214.999 C 174.861 212.368, 177.382 197.048, 176.585 196.252 C 176.344 196.011, 175.439 197.184, 174.574 198.857 M 485.597 196.844 C 485.251 197.404, 485.455 198.163, 486.050 198.531 C 487.588 199.481, 488.580 198.180, 487.296 196.896 C 486.578 196.178, 486.019 196.161, 485.597 196.844 M 52 197.918 C 52 199.231, 70.761 205.306, 72.617 204.593 C 75.736 203.397, 73.175 201.535, 65.431 199.370 C 56.887 196.981, 52 196.452, 52 197.918 M 217 201.167 C 217 204.852, 217.664 204.640, 218.373 200.727 C 218.645 199.227, 218.447 198, 217.934 198 C 217.420 198, 217 199.425, 217 201.167 M 305.361 198.990 C 304.184 199.465, 299.234 200.650, 294.361 201.622 L 285.500 203.391 292 204.727 C 295.575 205.462, 300.975 205.937, 304 205.782 L 309.500 205.500 309.810 201.750 C 310.139 197.783, 309.434 197.346, 305.361 198.990 M 230 206.441 C 230 207.298, 230.450 208, 231 208 C 231.550 208, 232 207.577, 232 207.059 C 232 206.541, 231.550 205.840, 231 205.500 C 230.450 205.160, 230 205.584, 230 206.441 M 448.200 206.200 C 447.540 206.860, 447 208.644, 447 210.165 C 447 213.497, 449.748 215.251, 454.278 214.810 C 456.749 214.570, 457.688 213.860, 458.462 211.645 C 459.320 209.192, 459.131 208.524, 457.119 206.895 C 454.473 204.752, 449.997 204.403, 448.200 206.200 M 452.250 207.718 C 450.334 208.406, 450.764 209.557, 453 209.725 C 454.100 209.808, 455 209.480, 455 208.997 C 455 207.773, 453.736 207.185, 452.250 207.718 M 230.914 212.233 C 231.571 215.447, 236.122 219.211, 237.583 217.750 C 238.245 217.088, 232.189 209.263, 230.876 209.085 C 230.533 209.038, 230.550 210.455, 230.914 212.233 M 488 216.500 C 488 217.325, 488.177 218, 488.393 218 C 488.609 218, 489.045 217.325, 489.362 216.500 C 489.678 215.675, 489.501 215, 488.969 215 C 488.436 215, 488 215.675, 488 216.500 M 223.578 220 C 224.679 224.041, 228.950 232, 230.017 232 C 231.455 232, 231.268 231.385, 228.500 227 C 227.125 224.822, 226 222.667, 226 222.211 C 226 221.755, 225.302 220.509, 224.448 219.441 C 222.957 217.576, 222.923 217.598, 223.578 220 M 489.079 222.583 C 489.127 223.748, 489.364 223.985, 489.683 223.188 C 489.972 222.466, 489.936 221.603, 489.604 221.271 C 489.272 220.939, 489.036 221.529, 489.079 222.583 M 195.750 225.080 C 193.570 226.350, 193.461 231.057, 195.521 235.040 C 197.042 237.983, 202.082 241.135, 207.250 242.377 C 208.762 242.741, 210 243.488, 210 244.038 C 210 245.405, 205.538 244.233, 199.773 241.352 C 194.761 238.847, 192.708 235.931, 191.583 229.722 C 190.798 225.389, 189 225.651, 189 230.099 C 189 233.976, 192.239 240.256, 195.603 242.902 C 198.860 245.465, 205.477 247.348, 208.530 246.582 C 211.057 245.948, 212.811 248.589, 211.040 250.360 C 210.063 251.337, 200.590 249.564, 195.610 247.473 C 192.166 246.026, 195.142 249.629, 201.002 254.002 C 207.605 258.928, 209.989 259.620, 215.095 258.090 C 220.754 256.394, 222.544 253.217, 221.090 247.445 C 220.461 244.944, 220.148 242.570, 220.396 242.169 C 221.042 241.123, 217.404 226.004, 216.221 224.821 C 214.889 223.489, 209 226.548, 209 228.573 C 209 229.410, 211.273 232.368, 214.051 235.146 C 216.828 237.924, 218.929 240.715, 218.719 241.348 C 218.509 241.982, 217.135 242.925, 215.666 243.444 C 213.511 244.205, 212.465 243.965, 210.248 242.198 C 208.737 240.994, 205.813 239.097, 203.750 237.984 C 200.943 236.468, 199.957 235.273, 199.829 233.230 C 199.735 231.728, 199.558 229.825, 199.435 229 C 199.313 228.175, 199.165 226.713, 199.106 225.750 C 198.986 223.765, 198.257 223.620, 195.750 225.080 M 232.419 226.527 C 232.927 229.329, 237 234.501, 237 232.345 C 237 231.740, 236.352 230.707, 235.559 230.049 C 234.767 229.392, 234.338 228.284, 234.605 227.587 C 234.872 226.890, 234.373 225.725, 233.496 224.997 C 232.087 223.827, 231.962 224.005, 232.419 226.527 M 471.461 229.116 C 468.690 230.068, 462.277 231.668, 457.212 232.673 L 448.001 234.500 448.001 238.316 C 448 243.463, 449.386 245.706, 453.066 246.514 C 454.761 246.887, 457.664 248.522, 459.517 250.149 C 463.941 254.034, 468.340 255.255, 473.198 253.947 C 479.122 252.351, 480.323 249.633, 479.813 238.966 C 479.270 227.619, 478.493 226.702, 471.461 229.116 M 490.079 229.583 C 490.127 230.748, 490.364 230.985, 490.683 230.188 C 490.972 229.466, 490.936 228.603, 490.604 228.271 C 490.272 227.939, 490.036 228.529, 490.079 229.583 M 44 230.559 C 44 231.416, 44.457 231.835, 45.016 231.490 C 45.575 231.144, 45.774 230.443, 45.457 229.931 C 44.600 228.544, 44 228.802, 44 230.559 M 63.539 231.198 C 62.460 231.824, 59.760 232.945, 57.539 233.689 C 53.673 234.984, 53.648 235.019, 56.946 234.507 C 62.957 233.573, 68 231.956, 68 230.961 C 68 229.684, 65.963 229.792, 63.539 231.198 M 468.500 232.010 C 466.850 232.466, 462.014 233.595, 457.753 234.519 C 453.492 235.444, 450.256 236.605, 450.562 237.100 C 451.454 238.543, 455.831 238.152, 463.792 235.918 C 467.873 234.773, 472.289 234.107, 473.606 234.437 C 475.539 234.922, 476 234.650, 476 233.019 C 476 230.809, 473.876 230.524, 468.500 232.010 M 160.308 236.250 C 154.599 242.266, 153.647 245.343, 154.522 254.949 C 154.951 259.652, 155.346 266.280, 155.401 269.679 C 155.518 276.974, 153.823 279.877, 146.747 284.500 C 140.614 288.507, 138.229 290.204, 139.765 289.469 C 140.461 289.136, 145.120 288.882, 150.118 288.906 C 158.769 288.947, 159.339 288.814, 162.012 286.142 C 163.556 284.598, 165.351 281.562, 166 279.396 C 167.087 275.767, 166.901 274.785, 163.640 266.908 C 157.530 252.146, 157.159 240.902, 162.586 234.905 C 165.523 231.659, 163.571 232.812, 160.308 236.250 M 46.250 235.662 C 45.494 235.968, 45.059 237.812, 45.150 240.333 C 45.273 243.748, 45.379 243.959, 45.738 241.500 C 46.307 237.609, 47.533 236.213, 50.823 235.709 C 53.381 235.318, 53.367 235.297, 50.500 235.229 C 48.850 235.190, 46.938 235.385, 46.250 235.662 M 491 236.941 C 491 238.073, 491.450 239, 492 239 C 492.550 239, 493 238.352, 493 237.559 C 493 236.766, 492.550 235.840, 492 235.500 C 491.450 235.160, 491 235.809, 491 236.941 M 61.180 236.686 C 60.218 237.070, 60.422 237.607, 61.930 238.663 C 63.068 239.461, 64 240.988, 64 242.057 C 64 243.126, 64.450 244, 65 244 C 65.550 244, 66 242.200, 66 240 C 66 235.948, 64.906 235.196, 61.180 236.686 M 55.543 237.931 C 55.226 238.443, 55.425 239.144, 55.984 239.490 C 56.543 239.835, 57 239.416, 57 238.559 C 57 236.802, 56.400 236.544, 55.543 237.931 M 234 238.309 C 234 240.081, 236.685 243.648, 237.446 242.887 C 238.316 242.017, 236.252 237, 235.025 237 C 234.461 237, 234 237.589, 234 238.309 M 168.538 243.961 C 163.517 249.103, 162.777 255.177, 165.894 265.644 C 168.681 275.003, 168.560 277.614, 165.013 284.609 C 163.370 287.849, 162.020 290.737, 162.013 291.026 C 161.979 292.411, 170.743 290.567, 172.686 288.780 L 174.873 286.771 174.288 289.006 C 173.718 291.186, 173.766 291.200, 176.249 289.572 C 180.728 286.638, 183.197 279.040, 182.891 269.132 C 182.745 264.384, 182.990 259.235, 183.436 257.689 C 184.118 255.326, 183.920 254.792, 182.193 254.340 C 180.679 253.944, 180.161 253.028, 180.223 250.855 C 180.362 245.955, 178.608 245.506, 175.762 249.712 C 171.684 255.742, 171.594 257.240, 174.868 264.709 C 179.008 274.155, 179.368 276.148, 177.650 280.090 L 176.163 283.500 176.082 279.228 C 176.026 276.325, 174.670 272.318, 171.850 266.728 C 166.819 256.752, 166.477 252.564, 170.097 245.248 C 171.525 242.362, 172.629 240, 172.550 240 C 172.471 240, 170.666 241.782, 168.538 243.961 M 229.188 241.063 C 229.428 241.784, 230.216 242.572, 230.938 242.813 C 231.688 243.063, 232.063 242.688, 231.813 241.938 C 231.572 241.216, 230.784 240.428, 230.063 240.188 C 229.313 239.938, 228.938 240.313, 229.188 241.063 M 462.661 240.673 C 459.925 243.409, 464.344 249, 469.242 249 C 472.334 249, 476 246.323, 476 244.066 C 476 242.430, 473.281 239.143, 472.726 240.107 C 472.602 240.323, 472.001 241.400, 471.391 242.500 C 469.876 245.232, 465.854 245.091, 464.440 242.256 C 463.825 241.022, 463.024 240.309, 462.661 240.673 M 54.099 245.585 C 52.442 246.448, 50.926 246.542, 49.210 245.890 C 47.842 245.370, 46.498 245.169, 46.223 245.444 C 45.574 246.092, 50.590 248, 52.943 248 C 54.629 248, 57.769 245.332, 56.893 244.644 C 56.677 244.474, 55.419 244.898, 54.099 245.585 M 237 244.889 C 237 246.380, 240.783 250.545, 241.494 249.837 C 242.285 249.049, 239.163 244, 237.885 244 C 237.398 244, 237 244.400, 237 244.889 M 149.562 250 C 149.919 251.925, 150.645 253.950, 151.176 254.500 C 152.331 255.696, 151.202 250.279, 149.822 248 C 149.230 247.024, 149.140 247.723, 149.562 250 M 52.250 249.746 C 46.612 249.924, 42 250.448, 42 250.910 C 42 252.009, 47.069 252.994, 52.875 253.024 C 55.419 253.037, 59.188 253.440, 61.250 253.919 C 64.920 254.771, 65 254.728, 65 251.895 C 65 250.133, 64.511 249.083, 63.750 249.211 C 63.063 249.327, 57.888 249.568, 52.250 249.746 M 233.545 253 C 234.311 255.735, 236.045 258.288, 236.696 257.637 C 236.923 257.411, 236.149 255.712, 234.976 253.863 C 233.231 251.108, 232.972 250.952, 233.545 253 M 238 256.716 C 238 257.237, 239.555 258.142, 241.456 258.725 C 244.127 259.545, 245.318 259.477, 246.706 258.425 C 248.348 257.179, 248.246 257.060, 245.500 257.018 C 243.850 256.993, 241.488 256.701, 240.250 256.370 C 239.012 256.038, 238 256.194, 238 256.716 M 349.411 260.500 L 348.367 265 351.559 265 L 354.752 265 353.134 260.500 C 352.244 258.025, 351.277 256, 350.985 256 C 350.693 256, 349.985 258.025, 349.411 260.500 M 450.473 259.030 C 447.838 261.942, 449.465 266.376, 453.333 266.823 C 456.537 267.192, 461 264.663, 461 262.477 C 461 260.213, 457.278 257, 454.655 257 C 453.365 257, 451.483 257.914, 450.473 259.030 M 453.565 259.895 C 453.260 260.388, 453.669 261.043, 454.474 261.352 C 456.036 261.951, 457.371 260.704, 456.306 259.639 C 455.402 258.735, 454.213 258.846, 453.565 259.895 M 47.564 265.707 C 47.022 267.132, 47.136 267.247, 48.124 266.267 C 48.808 265.588, 49.115 264.781, 48.807 264.474 C 48.499 264.166, 47.940 264.721, 47.564 265.707 M 190.199 266.626 C 189.568 268.207, 188.400 272.713, 187.603 276.639 C 186.806 280.565, 185.246 285.558, 184.136 287.734 C 181.848 292.218, 175.786 297.961, 173.215 298.079 C 172.252 298.123, 172.027 298.372, 172.703 298.647 C 174.315 299.301, 181.533 295.963, 186.628 292.207 C 189.597 290.019, 191.211 287.828, 192.378 284.404 C 194.348 278.623, 194.513 268.083, 192.673 265.567 C 191.433 263.872, 191.270 263.942, 190.199 266.626 M 235.500 265 C 235.148 265.569, 236.009 266, 237.500 266 C 238.991 266, 239.852 265.569, 239.500 265 C 239.160 264.450, 238.260 264, 237.500 264 C 236.740 264, 235.840 264.450, 235.500 265 M 246.532 265.948 C 245.704 267.289, 249.293 269, 252.934 269 C 255.956 269, 256.984 267.726, 254.967 266.479 C 253.131 265.345, 247.138 264.967, 246.532 265.948 M 52.184 268.504 C 52.811 269.882, 53.459 270.874, 53.623 270.711 C 54.231 270.102, 52.735 266, 51.905 266 C 51.431 266, 51.556 267.127, 52.184 268.504 M 308 271 C 307.207 271.490, 306.890 272.223, 307.296 272.629 C 307.701 273.035, 308.558 272.842, 309.200 272.200 C 310.711 270.689, 309.868 269.846, 308 271 M 206.677 271.703 C 205.132 272.103, 204.959 272.811, 205.540 276.337 C 207.996 291.232, 217.965 312.251, 225.314 318.032 C 226.745 319.158, 230.431 320.944, 233.505 322.002 C 240.933 324.557, 262.732 329.009, 267.615 328.967 L 271.500 328.933 269.073 326.913 C 267.738 325.802, 260.833 321.937, 253.730 318.325 C 244.174 313.466, 239.109 310.162, 234.262 305.629 C 226.447 298.318, 224.315 295.099, 220.195 284.379 C 215.038 270.958, 215.056 270.986, 211.589 271.116 C 209.890 271.180, 207.680 271.444, 206.677 271.703 M 64.500 272.889 C 63.497 273.891, 51.928 276.058, 46.718 276.220 C 45.146 276.269, 44.113 276.783, 44.343 277.403 C 44.567 278.006, 45.346 278.357, 46.075 278.183 C 46.804 278.009, 50.938 277.351, 55.260 276.721 C 64.115 275.430, 64.354 275.557, 65.397 282.081 C 65.732 284.173, 66.523 286.205, 67.155 286.596 C 67.984 287.108, 68.125 286.219, 67.659 283.403 C 66.083 273.882, 65.489 271.902, 64.500 272.889 M 238.500 273 C 238.840 273.550, 239.316 274, 239.559 274 C 239.802 274, 240 273.550, 240 273 C 240 272.450, 239.523 272, 238.941 272 C 238.359 272, 238.160 272.450, 238.500 273 M 243.433 272.892 C 244.782 275.075, 249.314 276.218, 257.500 276.441 C 261.900 276.560, 266.288 277.008, 267.250 277.436 C 268.481 277.983, 269 277.773, 269 276.726 C 269 275.799, 267.323 274.815, 264.557 274.119 C 258.854 272.683, 256.441 272.707, 254.008 274.227 C 252.051 275.449, 251.625 275.369, 244.586 272.453 C 243.192 271.876, 242.879 271.995, 243.433 272.892 M 289 275 C 288.207 275.490, 287.890 276.223, 288.296 276.629 C 288.701 277.035, 289.558 276.842, 290.200 276.200 C 291.711 274.689, 290.868 273.846, 289 275 M 449.027 278.250 C 448.449 280.587, 447.531 284.127, 446.988 286.116 C 444.505 295.204, 446.778 299.897, 454.039 300.678 C 456.999 300.996, 459.140 300.677, 460.402 299.731 C 462.078 298.474, 462.524 298.524, 464.152 300.152 C 466.598 302.598, 472.178 302.566, 474.414 300.095 C 476.434 297.862, 479 289.902, 479 285.867 C 479 282.012, 474.786 279.981, 465.301 279.264 C 459.767 278.845, 456.940 278.091, 454.373 276.349 C 452.469 275.057, 450.724 274, 450.494 274 C 450.265 274, 449.604 275.913, 449.027 278.250 M 451.656 278.678 C 450.370 279.964, 452.485 282, 455.107 282 C 458.149 282, 458.904 283.696, 456.800 285.800 C 455.953 286.647, 455.932 287, 456.727 287 C 457.346 287, 458.492 285.721, 459.271 284.158 C 460.683 281.328, 460.671 281.309, 456.431 279.738 C 454.089 278.870, 451.940 278.393, 451.656 278.678 M 240 280.465 C 240 280.720, 241.012 281.469, 242.250 282.129 C 244.290 283.216, 244.372 283.172, 243.128 281.664 C 241.850 280.115, 240 279.406, 240 280.465 M 56 281.858 C 56 282.421, 56.450 283.160, 57 283.500 C 57.550 283.840, 58 284.991, 58 286.059 C 58 288.987, 51.801 288.759, 49.594 285.750 L 47.945 283.500 48.585 286 C 49.570 289.849, 50.270 290.135, 55.798 288.950 L 60.943 287.846 59.676 284.741 C 58.443 281.719, 56 279.803, 56 281.858 M 257 282.051 C 257 282.573, 259.775 283, 263.167 283 C 266.558 283, 269.146 282.822, 268.917 282.605 C 267.942 281.681, 257 281.172, 257 282.051 M 141 283.398 C 139.625 284.122, 135.445 285.526, 131.711 286.517 C 123.002 288.827, 122.150 290.104, 130.344 288.564 C 135.683 287.561, 144 283.818, 144 282.418 C 144 281.846, 143.851 281.895, 141 283.398 M 251.813 282.683 C 252.534 282.972, 253.397 282.936, 253.729 282.604 C 254.061 282.272, 253.471 282.036, 252.417 282.079 C 251.252 282.127, 251.015 282.364, 251.813 282.683 M 278.701 282.632 C 277.334 283.999, 278.028 285.135, 280.040 284.820 C 281.161 284.644, 282.085 284.050, 282.092 283.500 C 282.109 282.283, 279.674 281.660, 278.701 282.632 M 463.190 285.095 C 462.974 287.927, 463.089 288.054, 464.548 286.595 C 466.727 284.415, 472.617 284.513, 473.920 286.750 C 474.798 288.258, 474.943 288.135, 474.970 285.857 C 475.005 282.787, 473.508 282, 467.631 282 C 463.647 282, 463.413 282.163, 463.190 285.095 M 265 286.418 C 265 286.649, 266.688 287.846, 268.750 289.080 C 270.813 290.314, 273.479 292.198, 274.676 293.267 C 277.794 296.051, 279.723 294.450, 276.799 291.505 C 275.535 290.231, 273.920 288.471, 273.211 287.594 C 272.101 286.222, 265 285.205, 265 286.418 M 288.460 289.125 C 287.665 291.632, 289.793 293.417, 291.695 291.838 C 292.601 291.086, 292.672 290.255, 291.944 288.895 C 290.612 286.407, 289.296 286.494, 288.460 289.125 M 449.772 288.250 C 448.857 290.507, 449.760 292.801, 452.045 294.024 C 454.210 295.183, 456.697 294.425, 459.750 291.677 C 463.059 288.698, 462.490 287.515, 458.958 290.030 C 455.225 292.688, 451.295 292.070, 450.810 288.748 C 450.527 286.812, 450.384 286.743, 449.772 288.250 M 281.471 291.032 C 279.736 292.949, 279.770 293, 282.786 293 C 286.530 293, 287.764 291.479, 285.154 290.082 C 283.675 289.291, 282.855 289.502, 281.471 291.032 M 69.750 293.577 C 69.338 293.993, 69 295.248, 69 296.367 C 69 297.838, 69.302 298.098, 70.094 297.306 C 70.695 296.705, 71.033 295.449, 70.844 294.517 C 70.655 293.584, 70.162 293.161, 69.750 293.577 M 465.473 294.044 C 464.744 295.224, 468.347 297.022, 469.728 296.168 C 470.429 295.735, 469.941 295.048, 468.425 294.332 C 467.092 293.703, 465.763 293.574, 465.473 294.044 M 291 294.507 C 291 296.062, 293.237 299.057, 295.173 300.093 L 297.301 301.231 295.104 298.146 C 292.885 295.029, 291 293.358, 291 294.507 M 285.262 300.690 C 286.192 301.620, 287.233 302.100, 287.576 301.757 C 288.561 300.773, 287.050 299, 285.227 299 C 283.700 299, 283.703 299.132, 285.262 300.690 M 61.500 309.434 C 55.910 312.126, 55.811 312.813, 61.346 310.500 C 66.059 308.531, 70.897 308.596, 73.177 310.661 C 74.187 311.574, 75.264 312.069, 75.572 311.761 C 76.650 310.683, 71.599 307, 69.061 307.013 C 67.653 307.020, 64.250 308.109, 61.500 309.434 M 27.079 311.583 C 27.127 312.748, 27.364 312.985, 27.683 312.188 C 27.972 311.466, 27.936 310.603, 27.604 310.271 C 27.272 309.939, 27.036 310.529, 27.079 311.583 M 189.500 311.796 C 191.304 313.697, 208.469 320.756, 221.128 324.803 C 234.540 329.091, 257.042 334.453, 266.175 335.538 C 273.019 336.351, 274.236 337.507, 280.087 348.760 C 282.449 353.303, 285.487 357.744, 286.838 358.630 L 289.295 360.240 288.774 356.355 C 288.099 351.316, 282.342 337.509, 279.576 334.293 C 277.766 332.190, 276.156 331.662, 269.462 330.979 C 260.767 330.093, 243.091 326.246, 230.500 322.499 C 215.998 318.184, 194.553 312.085, 191.500 311.408 C 189.414 310.945, 188.805 311.063, 189.500 311.796 M 53.500 313 C 53.160 313.550, 53.332 314, 53.882 314 C 54.432 314, 55.160 313.550, 55.500 313 C 55.840 312.450, 55.668 312, 55.118 312 C 54.568 312, 53.840 312.450, 53.500 313 M 441.999 315.502 C 441.293 316.352, 440.892 317.159, 441.107 317.295 C 441.323 317.431, 445.546 318.579, 450.492 319.846 C 463.288 323.125, 463.287 323.382, 450.478 325.037 C 438.323 326.607, 437 326.893, 437 327.952 C 437 329.677, 441.080 330.178, 443.299 328.725 C 444.510 327.933, 448.425 326.962, 452 326.569 C 455.575 326.175, 459.850 325.284, 461.500 324.589 L 464.500 323.324 456 319.283 C 444.811 313.962, 443.557 313.624, 441.999 315.502 M 37.152 318 C 37.152 318.825, 37.759 321.075, 38.500 323 C 39.241 324.925, 39.848 325.825, 39.848 325 C 39.848 324.175, 39.241 321.925, 38.500 320 C 37.759 318.075, 37.152 317.175, 37.152 318 M 63 317.286 C 63 319.212, 65.542 323, 66.835 323 C 67.966 323, 67.736 322.305, 65.924 320.250 C 64.591 318.738, 63.388 317.313, 63.250 317.083 C 63.112 316.854, 63 316.945, 63 317.286 M 56 319.286 C 56 320.713, 58.389 325, 59.184 325 C 59.658 325, 59.272 323.762, 58.326 322.250 C 56.079 318.659, 56 318.558, 56 319.286 M 70.500 326.940 C 68.990 327.544, 69.724 327.850, 73.500 328.192 C 76.250 328.441, 79.400 328.988, 80.500 329.406 C 82.220 330.061, 82.169 329.876, 80.139 328.084 C 77.724 325.952, 74.059 325.517, 70.500 326.940 M 40.475 329 C 41.879 333.851, 48.240 349.513, 49.206 350.500 C 49.745 351.050, 49.430 349.700, 48.507 347.500 C 47.584 345.300, 45.491 339.912, 43.857 335.526 C 40.949 327.723, 39.038 324.035, 40.475 329 M 200.271 329.092 C 203.562 331.008, 201.119 331.681, 192.005 331.370 C 183.252 331.072, 182.890 331.146, 181.833 333.467 C 181.230 334.790, 180.987 336.523, 181.292 337.319 C 181.772 338.569, 189.412 340.748, 199 342.370 C 200.375 342.603, 204.425 343.790, 208 345.008 C 211.575 346.226, 215.809 347.436, 217.409 347.696 C 219.008 347.957, 221.381 348.575, 222.681 349.069 C 226.580 350.551, 254.942 355.158, 258.358 354.864 C 260.102 354.714, 261.998 354.881, 262.572 355.235 C 263.145 355.590, 265.614 356.136, 268.057 356.450 C 270.501 356.764, 274.287 357.441, 276.472 357.955 C 278.656 358.469, 280.604 358.729, 280.800 358.533 C 280.996 358.337, 279.188 354.200, 276.783 349.338 L 272.410 340.500 260.455 339.846 C 248.439 339.190, 241.088 337.807, 215.801 331.446 C 208.266 329.551, 201.291 328.014, 200.301 328.030 C 198.585 328.059, 198.584 328.110, 200.271 329.092 M 445.500 330.779 C 447.366 332.633, 457.321 336.978, 463 338.416 C 466.017 339.180, 449.561 330.576, 446 329.527 C 443.501 328.791, 443.501 328.792, 445.500 330.779 M 465.500 333 C 465.840 333.550, 466.568 334, 467.118 334 C 467.668 334, 467.840 333.550, 467.500 333 C 467.160 332.450, 466.432 332, 465.882 332 C 465.332 332, 465.160 332.450, 465.500 333 M 283 333.768 C 283 334.190, 284.148 336.225, 285.550 338.289 C 287.697 341.448, 288.315 341.828, 289.457 340.686 C 290.203 339.940, 294.568 338.559, 299.157 337.618 C 313.071 334.764, 313.169 334.717, 307 333.914 C 299.435 332.929, 283 332.829, 283 333.768 M 104.229 338.187 C 104.727 339.682, 107 340.505, 107 339.190 C 107 338.653, 106.287 337.941, 105.416 337.606 C 104.443 337.233, 103.985 337.456, 104.229 338.187 M 167.773 344.159 C 165.685 346.396, 165.377 347.208, 166.460 347.623 C 167.237 347.921, 167.689 348.691, 167.464 349.333 C 166.887 350.974, 169.334 352.566, 190.073 364.041 C 213.407 376.951, 224.470 385.538, 248.640 409.499 C 267.693 428.387, 267.788 428.464, 264.766 422.500 C 256.709 406.598, 244.308 392.973, 224.326 378.071 C 204.307 363.141, 174.561 345.423, 170.893 346.244 C 170.264 346.385, 169.563 345.994, 169.334 345.376 C 169.052 344.617, 170.308 344.388, 173.209 344.669 L 177.500 345.084 175.139 343.042 C 172.121 340.432, 171.109 340.585, 167.773 344.159 M 300.912 344.810 L 290.324 347.500 291.745 351.750 C 293.386 356.656, 294.511 356.919, 303.068 354.403 C 309.201 352.599, 311.352 351.005, 313.522 346.656 C 314.718 344.257, 314.768 343.471, 313.764 342.833 C 312.183 341.829, 313.343 341.651, 300.912 344.810 M 86.027 343.750 C 86.041 344.163, 88.090 347.198, 90.579 350.495 C 93.283 354.076, 94.920 357.197, 94.646 358.246 C 94.212 359.907, 94.342 359.911, 97.035 358.320 L 99.884 356.637 93.839 349.819 C 88.318 343.591, 85.956 341.756, 86.027 343.750 M 109.500 347 C 109.840 347.550, 110.568 348, 111.118 348 C 111.668 348, 111.840 347.550, 111.500 347 C 111.160 346.450, 110.432 346, 109.882 346 C 109.332 346, 109.160 346.450, 109.500 347 M 182 347.276 C 182.825 348.172, 187.775 351.216, 193 354.039 C 198.225 356.862, 208.209 362.969, 215.186 367.610 C 222.163 372.251, 229.363 376.661, 231.186 377.411 C 233.009 378.160, 242.825 380.446, 253 382.490 C 282.735 388.465, 301.998 387.546, 318.309 379.373 C 327.506 374.765, 329.248 371.703, 324.457 368.564 C 322.031 366.974, 321.603 367.023, 315.207 369.620 C 310.886 371.375, 306.241 372.437, 302.150 372.607 C 297.856 372.786, 295.188 373.425, 293.910 374.581 C 290.840 377.359, 283.549 377.374, 267.930 374.634 C 242.340 370.144, 208.263 360.457, 200.285 355.403 C 199.067 354.631, 197.447 354, 196.684 354 C 195.318 354, 188.741 350.745, 183.291 347.373 C 180.888 345.885, 180.708 345.871, 182 347.276 M 427 347.096 C 427 347.698, 426.069 349.498, 424.932 351.096 C 422.643 354.310, 422.941 354.916, 425.535 352.322 C 426.648 351.209, 427.637 350.957, 428.472 351.572 C 429.165 352.082, 433.095 355.087, 437.205 358.250 C 446.269 365.224, 449.410 365.923, 441.302 359.161 C 438.111 356.500, 433.814 352.450, 431.753 350.161 C 427.837 345.813, 427 345.273, 427 347.096 M 458.563 349.930 C 456.893 351.776, 456.900 351.839, 458.741 351.357 C 459.800 351.080, 460.667 350.212, 460.667 349.427 C 460.667 347.618, 460.653 347.621, 458.563 349.930 M 50.031 352.500 C 50.031 353.050, 50.467 354.175, 51 355 C 51.533 355.825, 51.969 356.050, 51.969 355.500 C 51.969 354.950, 51.533 353.825, 51 353 C 50.467 352.175, 50.031 351.950, 50.031 352.500 M 322.007 353.250 C 322.011 353.938, 323.570 355.560, 325.473 356.856 C 333.271 362.166, 341.679 374.959, 355.733 402.900 C 361.930 415.219, 367 425.027, 367 424.694 C 367 423.681, 358.503 404.223, 352.505 391.500 C 349.394 384.900, 344.054 375.225, 340.640 370 C 337.226 364.775, 333.956 359.600, 333.373 358.500 C 331.093 354.200, 321.989 349.995, 322.007 353.250 M 69.632 354.500 C 70.581 357.278, 75.167 365.166, 75.588 364.745 C 76.399 363.934, 74.291 359.132, 71.724 355.946 C 70.071 353.894, 69.225 353.309, 69.632 354.500 M 211.428 357.565 C 216.888 359.442, 221.529 360.804, 221.741 360.592 C 222.194 360.139, 203.961 353.965, 202.498 354.076 C 201.949 354.118, 205.968 355.687, 211.428 357.565 M 158.300 360.359 C 157.860 361.106, 155.707 362.300, 153.516 363.013 C 150.115 364.120, 149.822 364.423, 151.516 365.085 C 152.651 365.528, 152.894 365.889, 152.083 365.930 C 151.304 365.968, 150.964 366.297, 151.327 366.661 C 152.020 367.353, 150.431 368.415, 143.024 372.208 C 140.563 373.469, 137.650 375.175, 136.553 376 C 132.784 378.832, 126 385.737, 126 386.741 C 126 387.293, 127.752 388.025, 129.893 388.367 C 133.448 388.935, 141.430 392.311, 157.500 400.041 C 163.464 402.910, 188.589 417.165, 190.500 418.764 C 191.509 419.609, 195.257 421.214, 195.786 421.029 C 195.943 420.974, 196.762 421.620, 197.607 422.464 C 198.452 423.309, 199.973 424, 200.988 424 C 202.003 424, 202.985 424.454, 203.170 425.010 C 203.355 425.565, 204.488 426.209, 205.688 426.440 C 206.888 426.671, 208.687 427.281, 209.685 427.795 C 210.683 428.309, 212.125 428.507, 212.889 428.235 C 213.669 427.958, 214 428.190, 213.645 428.765 C 213.297 429.329, 213.633 430.029, 214.393 430.320 C 215.362 430.692, 215.622 430.272, 215.266 428.910 C 214.987 427.842, 214.363 426.724, 213.879 426.425 C 212.099 425.325, 213.077 423.997, 215.750 423.884 C 217.607 423.806, 217.902 423.614, 216.659 423.293 C 215.077 422.885, 211 419.578, 211 418.704 C 211 418.365, 216.242 418.614, 217 418.989 C 217.275 419.126, 217.914 419.158, 218.419 419.062 C 218.925 418.966, 218.700 419.674, 217.919 420.636 C 217.139 421.597, 217.031 422.065, 217.681 421.676 C 218.330 421.286, 219.144 421.425, 219.490 421.984 C 219.835 422.543, 220.597 423, 221.181 423 C 221.919 423, 221.927 422.617, 221.207 421.750 C 219.679 419.908, 219.667 418.832, 221.165 417.831 C 222.040 417.246, 221.631 417.140, 219.975 417.522 C 218.412 417.882, 215.745 417.294, 212.975 415.978 C 210.514 414.809, 209.503 414.066, 210.729 414.327 C 212.559 414.717, 212.895 414.417, 212.607 412.651 C 212.414 411.468, 211.636 410.529, 210.878 410.564 C 210.120 410.600, 208.676 409.776, 207.670 408.734 C 205.891 406.893, 205.905 406.849, 208.170 407.178 C 209.451 407.363, 211.099 406.837, 211.832 406.008 C 212.990 404.697, 213.081 404.757, 212.529 406.470 C 212.180 407.553, 212.202 408.131, 212.579 407.755 C 213.752 406.582, 216.964 408.929, 216.356 410.515 C 215.681 412.274, 217.121 412.479, 218.745 410.855 C 219.604 409.996, 220.049 410.348, 220.532 412.270 C 220.929 413.853, 222.343 415.314, 224.238 416.099 C 226.824 417.170, 227.017 417.468, 225.474 418.009 C 223.840 418.582, 223.821 418.717, 225.291 419.281 C 226.196 419.629, 227.232 419.434, 227.593 418.850 C 227.954 418.265, 228.531 418.183, 228.875 418.667 C 229.870 420.069, 240 424.993, 240 424.074 C 240 421.959, 236.394 414.948, 232.503 409.500 C 227.409 402.367, 215.925 391.104, 207.298 384.779 C 193.901 374.958, 164.902 359.059, 160.300 359.012 C 159.640 359.005, 158.740 359.611, 158.300 360.359 M 89.750 361.572 C 86.012 363.600, 86.239 364.445, 90 362.500 C 91.650 361.647, 93 360.735, 93 360.474 C 93 359.831, 92.893 359.867, 89.750 361.572 M 223.813 361.683 C 224.534 361.972, 225.397 361.936, 225.729 361.604 C 226.061 361.272, 225.471 361.036, 224.417 361.079 C 223.252 361.127, 223.015 361.364, 223.813 361.683 M 341.576 363.860 C 342.627 365.639, 348.370 373.260, 354.338 380.797 C 360.307 388.334, 366.552 396.462, 368.218 398.859 C 370.207 401.722, 371.500 402.809, 371.984 402.026 C 372.522 401.156, 372.880 401.244, 373.305 402.352 C 373.625 403.187, 373.373 404.042, 372.743 404.252 C 371.906 404.531, 371.921 404.833, 372.799 405.376 C 373.460 405.784, 374 405.615, 374 405 C 374 404.385, 374.450 404.160, 375 404.500 C 379.611 407.350, 367.613 390.733, 349.964 369.824 C 347.793 367.252, 344.588 364.130, 342.841 362.887 L 339.666 360.626 341.576 363.860 M 230.813 363.683 C 231.534 363.972, 232.397 363.936, 232.729 363.604 C 233.061 363.272, 232.471 363.036, 231.417 363.079 C 230.252 363.127, 230.015 363.364, 230.813 363.683 M 311.369 364.441 C 309.647 365.190, 305.689 366.374, 302.574 367.071 C 297.447 368.218, 295.135 369.468, 296.189 370.523 C 296.911 371.244, 309.465 368.224, 313.250 366.419 C 319.386 363.491, 317.678 361.695, 311.369 364.441 M 234 364.388 C 234 365.068, 251.153 368.949, 261 370.498 C 273.016 372.388, 285.340 372.518, 284.749 370.750 C 284.460 369.884, 281.577 369.470, 275.370 369.402 C 263.987 369.278, 255.918 368.386, 244.091 365.943 C 233.694 363.796, 234 363.843, 234 364.388 M 364.075 378.207 C 370.442 384.426, 376.920 391.433, 378.472 393.778 C 381.592 398.492, 382.778 398.669, 381.215 394.187 L 380.199 391.273 388.850 391.583 C 393.607 391.754, 397.837 391.917, 398.250 391.947 C 398.663 391.976, 399 392.391, 399 392.869 C 399 394.054, 388.063 405, 386.878 405 C 386.321 405, 386.371 405.824, 387 407 C 387.589 408.100, 388.482 409, 388.984 409 C 389.487 409, 393.545 405.426, 398.002 401.058 C 407.167 392.076, 407.273 393.483, 397 387.786 C 394.525 386.413, 389.827 383.650, 386.560 381.646 C 383.293 379.641, 376.093 376.239, 370.560 374.085 C 365.027 371.931, 358.700 369.434, 356.500 368.535 C 352.915 367.070, 353.700 368.073, 364.075 378.207 M 325 378.020 C 317.621 382.762, 303.603 386.885, 292.355 387.622 C 278.987 388.498, 256.739 385.677, 235.439 380.406 C 232.851 379.765, 233.185 380.265, 238.230 384.589 C 249.994 394.672, 270.073 419.921, 283.633 441.682 C 284.256 442.682, 285.002 443.275, 285.291 443 C 285.580 442.725, 283.614 439.157, 280.920 435.072 C 278.227 430.986, 276.181 427.486, 276.373 427.294 C 276.565 427.101, 277.939 427.407, 279.426 427.972 C 285.578 430.311, 302.370 428.436, 319.353 423.514 C 332.470 419.713, 350 412.706, 350 411.263 C 350 409.397, 348.978 409.627, 338.270 413.892 C 317.029 422.353, 298.847 426.309, 283.546 425.799 L 274.592 425.500 271.151 419.695 C 269.258 416.502, 264.006 409.826, 259.479 404.860 C 250.931 395.484, 248.166 391.501, 249.369 390.298 C 249.757 389.910, 254.608 390.374, 260.149 391.330 C 285.062 395.628, 300.843 394.335, 326.765 385.872 C 335.166 383.130, 336.462 381.794, 334.467 377.936 C 332.590 374.307, 330.753 374.323, 325 378.020 M 442.500 379 C 442.840 379.550, 442.641 380, 442.059 380 C 441.477 380, 441 380.450, 441 381 C 441 382.614, 443.730 382.146, 444.393 380.418 C 445.254 378.175, 445.185 378, 443.441 378 C 442.584 378, 442.160 378.450, 442.500 379 M 425.507 387.989 C 425.157 388.555, 425.558 388.723, 426.448 388.382 C 428.180 387.717, 428.497 387, 427.059 387 C 426.541 387, 425.843 387.445, 425.507 387.989 M 333.500 392.201 C 327.105 395.578, 315.188 399.636, 306 401.565 C 297.266 403.398, 272.382 404.020, 264.995 402.590 C 261.931 401.997, 261.747 402.068, 263.500 403.165 C 264.890 404.034, 270.686 404.429, 282.500 404.458 C 296.778 404.493, 301.182 404.125, 310 402.158 C 322.483 399.373, 335.025 394.734, 337.518 391.980 C 339.798 389.461, 338.558 389.529, 333.500 392.201 M 339 399.823 C 337.075 400.782, 333.925 402.186, 332 402.943 C 330.075 403.700, 327.716 405.260, 326.757 406.410 C 325.469 407.954, 324.805 408.179, 324.211 407.271 C 323.491 406.169, 316.675 407.413, 306.285 410.544 C 305.572 410.759, 306.696 412.602, 309.006 415.006 C 312.266 418.400, 313.267 418.928, 314.839 418.086 C 315.883 417.527, 317.021 417.355, 317.369 417.702 C 317.716 418.049, 318 417.839, 318 417.234 C 318 416.629, 317.069 415.839, 315.931 415.478 C 313.955 414.851, 313.944 414.762, 315.679 413.492 C 316.679 412.762, 317.163 411.829, 316.755 411.421 C 316.346 411.013, 315.099 411.506, 313.983 412.516 C 312.443 413.909, 311.673 414.073, 310.793 413.193 C 309.179 411.579, 309.862 411.155, 316.995 409.344 L 323.258 407.755 325.701 410.878 C 327.045 412.595, 328.787 414, 329.572 414 C 331.456 414, 331.406 412.370, 329.500 411.638 C 328.675 411.322, 328 410.599, 328 410.031 C 328 408.341, 330.823 408.862, 331.888 410.750 C 332.625 412.055, 333.166 412.212, 334.020 411.368 C 334.879 410.518, 334.855 409.741, 333.924 408.250 C 333.204 407.097, 333.004 405.476, 333.448 404.382 C 334.165 402.613, 334.275 402.636, 335.259 404.750 C 335.834 405.988, 336.912 407, 337.653 407 C 338.394 407, 339 407.450, 339 408 C 339 408.550, 339.788 408.987, 340.750 408.971 C 342.102 408.948, 341.783 408.289, 339.348 406.073 C 337.198 404.116, 336.522 402.878, 337.220 402.180 C 337.783 401.617, 338.864 401.394, 339.622 401.685 C 340.380 401.976, 341 401.668, 341 401 C 341 400.332, 341.674 400.045, 342.500 400.362 C 343.414 400.712, 344 400.363, 344 399.469 C 344 397.617, 343.334 397.664, 339 399.823 M 205.500 403 C 206.600 403.473, 206.911 403.891, 206.191 403.930 C 203.832 404.056, 206.056 406, 208.559 406 C 209.902 406, 211 405.550, 211 405 C 211 404.450, 210.298 404, 209.441 404 C 208.584 404, 208.160 403.550, 208.500 403 C 208.859 402.419, 207.941 402.029, 206.309 402.070 C 203.838 402.132, 203.741 402.244, 205.500 403 M 341.723 406.168 C 343.528 407.973, 344.149 408.121, 345.434 407.054 C 346.283 406.350, 346.731 405.374, 346.430 404.887 C 345.500 403.381, 344.002 403.907, 343.970 405.750 C 343.941 407.417, 343.891 407.417, 342.920 405.750 C 342.359 404.788, 341.373 404, 340.728 404 C 340.083 404, 340.531 404.975, 341.723 406.168 M 328.149 406.666 C 326.454 408.505, 326.862 408.836, 329.883 408.070 C 331.829 407.576, 332.012 407.258, 330.883 406.333 C 329.834 405.474, 329.174 405.555, 328.149 406.666 M 336.500 409 C 336.840 409.550, 337.316 410, 337.559 410 C 337.802 410, 338 409.550, 338 409 C 338 408.450, 337.523 408, 336.941 408 C 336.359 408, 336.160 408.450, 336.500 409 M 320 410.800 C 320 411.790, 319.475 413.125, 318.833 413.767 C 317.943 414.657, 318.107 415.104, 319.523 415.647 C 320.609 416.064, 321.536 415.893, 321.755 415.236 C 321.961 414.618, 322.730 414.343, 323.463 414.624 C 324.197 414.906, 325.063 414.707, 325.388 414.182 C 325.712 413.657, 325.081 412.993, 323.985 412.706 C 322.657 412.359, 322.196 411.653, 322.603 410.593 C 323.006 409.543, 322.666 409, 321.607 409 C 320.723 409, 320 409.810, 320 410.800 M 298 411.911 L 295.500 412.623 297.838 413.893 C 299.640 414.873, 300.037 415.718, 299.569 417.582 C 299.235 418.912, 299.256 420, 299.615 420 C 300.813 420, 305.008 414.505, 304.053 414.185 C 303.536 414.012, 303.360 413.225, 303.663 412.435 C 304.263 410.871, 302.294 410.689, 298 411.911 M 216.725 413.425 C 215.088 414.653, 215.166 414.799, 217.725 415.290 C 221.117 415.942, 221.311 415.791, 219.740 413.723 C 218.689 412.341, 218.229 412.295, 216.725 413.425 M 270 413 C 270 413.550, 270.675 414, 271.500 414 C 272.325 414, 273 413.550, 273 413 C 273 412.450, 272.325 412, 271.500 412 C 270.675 412, 270 412.450, 270 413 M 284.551 413.944 C 283.031 415.624, 283.042 415.806, 284.707 416.494 C 287.624 417.700, 291.063 417.912, 290.404 416.844 C 290.070 416.305, 289.158 416.109, 288.376 416.409 C 287.261 416.837, 287.171 416.549, 287.959 415.077 C 289.367 412.447, 286.707 411.562, 284.551 413.944 M 291 412.820 C 291 413.351, 291.675 414.045, 292.500 414.362 C 294.606 415.170, 294.366 417.291, 292 418.768 C 290.900 419.455, 290 420.463, 290 421.008 C 290 422.936, 292.882 421.965, 294.945 419.343 C 296.789 416.998, 296.872 416.439, 295.648 414.593 C 294.187 412.389, 291 411.173, 291 412.820 M 278.500 414 C 278.840 414.550, 279.740 415, 280.500 415 C 281.260 415, 282.160 414.550, 282.500 414 C 282.852 413.431, 281.991 413, 280.500 413 C 279.009 413, 278.148 413.431, 278.500 414 M 272.636 416.494 C 272.952 417.316, 273.612 417.740, 274.105 417.435 C 275.517 416.563, 275.149 415, 273.531 415 C 272.639 415, 272.288 415.587, 272.636 416.494 M 343.180 417.148 C 340.253 418.273, 338.030 419.363, 338.239 419.572 C 338.615 419.948, 349.111 416.208, 349.917 415.412 C 350.801 414.538, 348.287 415.186, 343.180 417.148 M 275.512 416.980 C 275.106 417.637, 275.224 418.624, 275.774 419.174 C 277.077 420.477, 278.113 418.801, 277.059 417.095 C 276.444 416.101, 276.073 416.073, 275.512 416.980 M 305.200 417.200 C 303.839 418.561, 303.588 421, 304.809 421 C 306.552 421, 309.267 418.240, 308.594 417.152 C 307.684 415.680, 306.706 415.694, 305.200 417.200 M 280.636 418.507 C 277.533 421.610, 279.007 423.189, 282.559 420.567 C 283.990 419.511, 284.207 418.837, 283.386 418.003 C 282.558 417.162, 281.851 417.292, 280.636 418.507 M 330.500 422.085 C 327.750 423.147, 326.800 423.762, 328.390 423.453 C 331.534 422.842, 338.124 420.166, 336.500 420.159 C 335.950 420.157, 333.250 421.024, 330.500 422.085 M 344.500 423.136 C 331.266 428.928, 319.472 432.758, 305 435.961 C 297.025 437.726, 290.143 439.511, 289.708 439.928 C 289.272 440.344, 289.578 441.235, 290.387 441.906 C 292.140 443.361, 307.049 439.728, 329.361 432.411 C 337.379 429.781, 346.046 427.628, 349.921 427.303 L 356.620 426.742 355.060 423.403 C 354.202 421.567, 353.050 420.067, 352.500 420.068 C 351.950 420.070, 348.350 421.450, 344.500 423.136 M 283.500 422 C 283.160 422.550, 283.332 423, 283.882 423 C 284.432 423, 285.160 422.550, 285.500 422 C 285.840 421.450, 285.668 421, 285.118 421 C 284.568 421, 283.840 421.450, 283.500 422 M 318 425.500 C 315.525 426.217, 314.400 426.813, 315.500 426.825 C 316.600 426.837, 319.300 426.253, 321.500 425.528 C 326.679 423.821, 323.872 423.799, 318 425.500 M 223 425.416 C 223 426.471, 226.012 429.321, 226.554 428.780 C 226.806 428.527, 226.110 427.504, 225.006 426.506 C 223.903 425.507, 223 425.017, 223 425.416 M 310.813 427.683 C 311.534 427.972, 312.397 427.936, 312.729 427.604 C 313.061 427.272, 312.471 427.036, 311.417 427.079 C 310.252 427.127, 310.015 427.364, 310.813 427.683 M 305.750 428.662 C 306.438 428.940, 307.563 428.940, 308.250 428.662 C 308.938 428.385, 308.375 428.158, 307 428.158 C 305.625 428.158, 305.063 428.385, 305.750 428.662 M 300.813 429.683 C 301.534 429.972, 302.397 429.936, 302.729 429.604 C 303.061 429.272, 302.471 429.036, 301.417 429.079 C 300.252 429.127, 300.015 429.364, 300.813 429.683 M 293.250 430.689 C 294.212 430.941, 295.788 430.941, 296.750 430.689 C 297.712 430.438, 296.925 430.232, 295 430.232 C 293.075 430.232, 292.288 430.438, 293.250 430.689" stroke="none" fill="black" fill-rule="evenodd"/>
</svg>